<?xml version="1.0" encoding="utf-8"?>
<!-- Generator: Adobe Illustrator 15.0.0, SVG Export Plug-In . SVG Version: 6.00 Build 0)  -->
<!DOCTYPE svg PUBLIC "-//W3C//DTD SVG 1.1//EN" "http://www.w3.org/Graphics/SVG/1.1/DTD/svg11.dtd">
<svg version="1.1" id="Layer_1" xmlns="http://www.w3.org/2000/svg" xmlns:xlink="http://www.w3.org/1999/xlink" x="0px" y="0px"
	 width="100%" height="100%" viewBox="0 0 572 547.191" enable-background="new 0 0 572 547.191" xml:space="preserve">
<symbol  id="New_Symbol_1" viewBox="-6.084 -15.092 12.169 30.184">
	<g>
		<path fill="#FFFFFF" d="M0.1,9.126c1.649,0,2.986,1.337,2.986,2.986c0,1.646-1.337,2.979-2.986,2.979
			c-1.648,0-2.985-1.337-2.985-2.979C-2.892,10.463-1.555,9.126,0.1,9.126z"/>
		<path fill="#FFFFFF" d="M3.334,8.093h-6.668c-1.52,0-2.751-1.217-2.751-2.719V4.916v-8.948c0-0.51,0.414-0.924,0.925-0.924
			c0.51,0,0.924,0.414,0.924,0.924l-0.002,8.762c0,0.345,0.273,0.612,0.611,0.612l0.008-18.836c0-0.872,0.707-1.58,1.58-1.58
			s1.58,0.708,1.58,1.58l0.004,9.959c0,0.253,0.205,0.458,0.458,0.458s0.458-0.205,0.458-0.458l-0.003-9.977
			c0-0.872,0.708-1.58,1.581-1.58s1.58,0.708,1.58,1.58L3.627,5.342c0.337,0,0.611-0.271,0.611-0.612L4.235-4.032
			c0-0.51,0.414-0.924,0.925-0.924c0.51,0,0.924,0.414,0.924,0.924v8.948v0.458C6.084,6.876,4.854,8.093,3.334,8.093z"/>
	</g>
</symbol>
<pattern  x="-11.5" y="694.096" width="7" height="19" patternUnits="userSpaceOnUse" id="SVGID_8_" viewBox="0.45 -19.139 7 19" overflow="visible">
	<g>
		<polygon fill="none" points="0.45,-0.139 7.45,-0.139 7.45,-19.139 0.45,-19.139 		"/>
		<g>
			<polygon fill="none" points="0.45,-19.139 7.45,-19.139 7.45,-0.139 0.45,-0.139 			"/>
			<g>
				<polygon fill="none" points="0.45,-0.139 7.45,-0.139 7.45,-19.139 0.45,-19.139 				"/>
				<g>
					<polygon fill="none" points="0.45,-19.139 7.45,-19.139 7.45,-0.139 0.45,-0.139 					"/>
					<g>
						<polygon fill="none" points="0.45,-0.139 7.45,-0.139 7.45,-19.139 0.45,-19.139 						"/>
						<g>
							<polygon fill="none" points="0.45,-19.139 7.45,-19.139 7.45,-0.139 0.45,-0.139 							"/>
							<g>
								<polygon fill="none" points="0.45,-0.139 7.45,-0.139 7.45,-19.139 0.45,-19.139 								"/>
								<line fill="none" stroke="#CCCCCC" stroke-width="2" stroke-miterlimit="10" x1="3.5" y1="-19.049" x2="3.5" y2="0"/>
								<polygon fill="none" points="7,0 0,0 0,-19.049 7,-19.049 								"/>
							</g>
						</g>
					</g>
				</g>
			</g>
		</g>
	</g>
</pattern>
<circle opacity="0.15" fill="#878787" enable-background="new    " cx="467.504" cy="441.68" r="61.425"/>
<circle opacity="0.15" fill="#878787" enable-background="new    " cx="105.892" cy="442.68" r="61.425"/>
<circle opacity="0.15" fill="#878787" enable-background="new    " cx="285.58" cy="332.54" r="97.609"/>
<g id="Layer_1_2_">
	<g id="Layer_5" opacity="0.3">
		<g>
			<path fill="#FFFFFF" d="M153.055,406.409c-10.869-14.3-28.052-23.537-47.399-23.537c-19.08,0-36.052,8.991-46.941,22.956v73.106
				c10.89,13.966,27.861,22.956,46.941,22.956c19.348,0,36.53-9.237,47.399-23.537V406.409z"/>
			<path fill="#B54147" d="M107.67,485.786c-0.467-7.678-0.678-12.636-0.854-17.43c-0.098-2.057,1.701-1.854,3.023-1.646
				c11.059,1.712,16.271,2.512,16.271,2.512c-5.73-10.821,8.674-16.063,16.078-22.362c-5.738-1.938-4.959-1.229-1.262-15.016
				c-11.979,3.812-11.006,2.697-13.547-3.253c0,0-0.936,1.063-8.43,9.53c-1.071,1.209-2.863,0.396-2.486-1.445
				c3.908-19.322,4.102-20.107,4.102-20.107c-7.605,4.597-7.32,4.854-8.529,2.48c-4.179-8.131-6.152-12.14-6.152-12.14
				s-1.977,4.008-6.154,12.14c-1.207,2.371-0.924,2.111-8.525-2.48c0,0,0.189,0.785,4.1,20.107c0.377,1.85-1.416,2.655-2.486,1.445
				c-7.498-8.467-8.426-9.53-8.426-9.53c-2.549,5.95-1.557,7.062-13.549,3.253c3.693,13.781,4.477,13.072-1.264,15.016
				c7.402,6.299,21.812,11.541,16.074,22.362c0,0,5.217-0.799,16.271-2.512c1.323-0.209,3.125-0.406,3.021,1.646
				c-0.17,4.793-0.381,9.752-0.85,17.43H107.67z"/>
			<path fill="#B54147" d="M153.055,478.354c7.596-9.991,12.111-22.452,12.111-35.973c0-13.52-4.517-25.98-12.111-35.973V478.354z"
				/>
			<path fill="#B54147" d="M58.713,405.828c-7.867,10.089-12.567,22.769-12.567,36.554s4.7,26.465,12.567,36.554V405.828z"/>
		</g>
		<rect x="143.225" y="239.029" fill="none" width="287.262" height="189.133"/>
		<g>
			<g>
				<path fill="#B54147" d="M499.491,492.186h-63.438c9.184,5.8,20.055,9.168,31.72,9.168S490.309,497.984,499.491,492.186z"/>
				<path fill="#B54147" d="M417.674,473.942c2.127,3.313,4.571,6.401,7.297,9.224h85.604c2.726-2.821,5.17-5.909,7.297-9.224
					H417.674z"/>
				<path fill="#B54147" d="M459.223,446.681h67.848c0.128-1.597,0.212-3.207,0.212-4.837c0-1.478-0.071-2.937-0.178-4.387h-67.882
					V446.681L459.223,446.681z"/>
				<path fill="#B54147" d="M459.223,400.977v9.227h58.94c-2.081-3.311-4.48-6.396-7.155-9.227H459.223z"/>
				<path fill="#B54147" d="M459.223,419.216v9.229h66.525c-0.731-3.182-1.713-6.267-2.932-9.229H459.223z"/>
				<path fill="#B54147" d="M459.223,382.954v8.999h40.974c-7.539-4.909-16.255-8.157-25.637-9.223h-13.574
					C460.396,382.798,459.808,382.87,459.223,382.954z"/>
				<path fill="#B54147" d="M409.902,455.698c0.759,3.18,1.758,6.265,3.004,9.224H522.64c1.246-2.959,2.245-6.044,3.004-9.224
					H409.902z"/>
			</g>
			<path fill="#435063" d="M459.22,382.955c-7.011,1.01-13.628,3.234-19.626,6.466l0.781,2.532l-2.258-1.639l-2.256,1.846
				l0.188-0.656c-1.352,0.854-2.673,1.747-3.947,2.703h2.524l-2.25,1.645l0.82,2.869l-2.254-1.846l-2.256,1.846l0.894-2.506
				c-1.531,1.284-2.995,2.646-4.392,4.076l0.208,0.686h2.667l-2.045,1.643l0.822,2.662l-2.251-1.643l-2.462,1.643l1.023-2.662
				l-0.07-0.051c-1.392,1.582-2.698,3.24-3.919,4.965h1.934l-2.244,1.637l0.813,2.667l-2.245-1.64l-0.071,0.053
				c-1.569,2.499-2.959,5.12-4.148,7.85l0.113,0.297l-0.188-0.136c-1.204,2.788-2.21,5.685-2.98,8.673l0.908-2.182l0.812,2.458
				h2.666l-2.242,1.642l1.022,2.662l-2.254-1.637l-1.81,1.202c-0.551,3.01-0.873,6.098-0.951,9.248h1.73l1.023-2.458l0.812,2.458
				h2.666l-2.242,1.641l1.022,2.87l-2.254-1.847l-2.463,1.847l1.021-2.87l-1.337-0.973c-0.004,0.284-0.021,0.563-0.021,0.85
				c0,1.629,0.084,3.237,0.212,4.833h50.745v-63.723H459.22z M437.288,400.977l0.824-2.668l0.816,2.668h2.871l-2.246,1.643
				l0.819,2.663l-2.257-1.644l-2.256,1.644l0.82-2.663l-2.256-1.643H437.288z M440.375,418.395l-2.258-1.638l-2.256,1.638l0.82-2.66
				l-2.256-1.645h2.861l0.824-2.665l0.816,2.665h2.871l-2.246,1.645L440.375,418.395z M440.375,431.513l-2.258-1.637l-2.256,1.637
				l0.82-2.662l-2.256-1.642h2.861l0.824-2.458l0.816,2.458h2.871l-2.246,1.642L440.375,431.513z M433.198,424.952l-2.254-1.638
				l-2.256,1.638l1.023-2.66l-2.262-1.644h2.67l0.818-2.455l1.021,2.455h2.666l-2.25,1.644L433.198,424.952z M426.843,431.513
				l-2.251-1.637l-2.462,1.637l1.023-2.662l-2.258-1.642h2.867l0.823-2.458l0.812,2.458h2.667l-2.045,1.642L426.843,431.513z
				 M430.12,407.532l0.818-2.665l1.021,2.665h2.665l-2.25,1.637l0.821,2.667l-2.254-1.639l-2.256,1.639l1.023-2.667l-2.262-1.637
				H430.12z M423.764,414.09l0.823-2.665l0.812,2.665h2.667l-2.045,1.645l0.822,2.66l-2.251-1.638l-2.462,1.638l1.023-2.66
				l-2.258-1.645H423.764z M413.722,420.648h2.873l0.818-2.455l0.812,2.455h2.871l-2.244,1.644l0.813,2.66l-2.245-1.638
				l-2.265,1.638l0.821-2.66L413.722,420.648z M417.422,436.435l-2.265,1.85l0.821-2.869l-2.258-1.646h2.873l0.818-2.458
				l0.812,2.458h2.871l-2.244,1.646l0.814,2.66L417.422,436.435z M426.843,444.837l-2.251-1.847l-2.462,1.847l1.023-2.87
				l-2.258-1.641h2.867l0.823-2.458l0.812,2.458h2.667l-2.045,1.641L426.843,444.837z M430.945,436.435l-2.256,1.85l1.023-2.869
				l-2.262-1.646h2.67l0.818-2.458l1.021,2.458h2.666l-2.25,1.646l0.82,2.66L430.945,436.435z M440.375,444.837l-2.258-1.847
				l-2.256,1.847l0.82-2.87l-2.256-1.641h2.861l0.824-2.458l0.816,2.458h2.871l-2.246,1.641L440.375,444.837z M446.929,438.074
				l-2.254-1.641l-2.459,1.85l1.022-2.869l-2.259-1.646h2.871l0.818-2.458l0.817,2.458h2.665l-2.248,1.646L446.929,438.074z
				 M445.906,422.292l1.023,2.66l-2.254-1.638l-2.459,1.638l1.022-2.66l-2.259-1.644h2.871l0.818-2.455l0.817,2.455h2.665
				L445.906,422.292z M445.906,409.169l1.023,2.667l-2.254-1.639l-2.459,1.639l1.022-2.667l-2.259-1.637h2.871l0.818-2.665
				l0.817,2.665h2.665L445.906,409.169z M445.906,395.852l1.023,2.869l-2.254-1.846l-2.459,1.846l1.022-2.869l-2.259-1.645h2.871
				l0.818-2.456l0.817,2.456h2.665L445.906,395.852z M453.898,444.837l-2.254-1.847l-2.257,1.847l1.024-2.87l-2.256-1.641h2.661
				l0.821-2.458l1.021,2.458h2.668l-2.248,1.641L453.898,444.837z M453.078,428.851l0.818,2.662l-2.254-1.637l-2.257,1.637
				l1.024-2.662l-2.256-1.642h2.661l0.821-2.458l1.021,2.458h2.668L453.078,428.851z M453.078,415.734l0.818,2.66l-2.254-1.639
				l-2.257,1.639l1.024-2.66l-2.256-1.646h2.661l0.821-2.665l1.021,2.665h2.668L453.078,415.734z M453.078,402.618l0.818,2.663
				l-2.254-1.643l-2.257,1.643l1.024-2.663l-2.256-1.642h2.661l0.821-2.668l1.021,2.668h2.668L453.078,402.618z M453.078,389.294
				l0.818,2.659l-2.254-1.639l-2.257,1.846l1.024-2.866l-2.256-1.646h2.661l0.821-2.459l1.021,2.459h2.668L453.078,389.294z"/>
		</g>
		<g>
			<path fill="#B54147" d="M332.89,251.628v160.878c27.6-16.174,46.137-46.14,46.137-80.439
				C379.027,297.768,360.49,267.802,332.89,251.628z"/>
			<path fill="#FCFEFC" d="M238.174,252.009v160.117c13.949,8.326,30.254,13.114,47.681,13.114c17.78,0,34.396-4.982,48.53-13.625
				V252.52c-12.804-7.828-27.643-12.651-43.537-13.491h-9.986C265.315,239.85,250.782,244.484,238.174,252.009z"/>
			<path fill="#356D35" d="M238.436,251.854c-27.389,16.225-45.755,46.072-45.755,80.212c0,34.143,18.366,63.988,45.755,80.215
				V251.854z"/>
		</g>
	</g>
	<g id="Layer_1_1_">
		<g id="New_Symbol" display="none">
		</g>
		<g display="none" opacity="0.25">
			
				<pattern  id="SVGID_1_" xlink:href="#SVGID_8_" patternTransform="matrix(0.155 0.155 -0.155 0.155 -48559.8125 1525.2422)"  opacity="0.25">
			</pattern>
			<path display="inline" fill="url(#SVGID_1_)" d="M286.676,426.953c-52.388,0-95.008-42.621-95.008-95.008
				s42.62-95.007,95.008-95.007c52.387,0,95.007,42.621,95.007,95.007C381.683,384.333,339.062,426.953,286.676,426.953z"/>
			<g display="inline">
				<path fill="#CCCCCC" d="M286.676,237.226c52.229,0,94.721,42.491,94.721,94.719c0,52.228-42.49,94.722-94.721,94.722
					c-52.231,0-94.721-42.492-94.721-94.722C191.955,279.717,234.447,237.226,286.676,237.226 M286.676,236.651
					c-52.629,0-95.295,42.666-95.295,95.294c0,52.631,42.666,95.295,95.295,95.295s95.294-42.664,95.294-95.295
					C381.97,279.316,339.305,236.651,286.676,236.651L286.676,236.651z"/>
			</g>
		</g>
		<circle display="none" fill="#CCCCCC" cx="105.822" cy="442.382" r="61.891"/>
		<circle display="none" fill="#CCCCCC" cx="285.651" cy="327.945" r="95.39"/>
		
			<text transform="matrix(0.9865 0.1639 -0.1639 0.9865 287.1604 466.4619)" fill="#435063" font-family="'ArialMT'" font-size="9.8907"> </text>
		<circle display="none" fill="#CCCCCC" cx="467.505" cy="442.069" r="61.89"/>
		<g>
			
				<line fill="none" stroke="#000000" stroke-width="0.25" stroke-miterlimit="10" x1="467.438" y1="218.264" x2="467.438" y2="239.5"/>
		</g>
		<g>
			<path fill="#B54147" d="M395.656,200.387v-0.027c0-2.69,2.121-4.894,5.041-4.894c2.922,0,5.019,2.177,5.019,4.867v0.027
				c0,2.69-2.121,4.894-5.041,4.894S395.656,203.078,395.656,200.387z M403.536,200.387v-0.027c0-1.622-1.188-2.974-2.862-2.974
				c-1.681,0-2.84,1.325-2.84,2.947v0.027c0,1.623,1.188,2.975,2.862,2.975C402.377,203.334,403.536,202.009,403.536,200.387z"/>
			<path fill="#B54147" d="M407.698,199.603h-0.08c-0.474,0-0.853-0.365-0.853-0.838c0-0.473,0.379-0.852,0.853-0.852h0.08v-0.459
				c0-0.798,0.203-1.379,0.582-1.758c0.379-0.379,0.937-0.568,1.662-0.568c0.325,0,0.608,0.014,0.84,0.054
				c0.354,0.054,0.703,0.365,0.703,0.825s-0.38,0.852-0.841,0.852h-0.176c-0.476,0-0.742,0.244-0.742,0.784v0.284h0.894
				c0.476,0,0.854,0.365,0.854,0.838s-0.379,0.838-0.854,0.838h-0.862v4.542c0,0.568-0.461,1.027-1.029,1.027
				c-0.565,0-1.026-0.459-1.026-1.027L407.698,199.603L407.698,199.603z M412.864,199.603h-0.082c-0.474,0-0.853-0.365-0.853-0.838
				c0-0.473,0.379-0.852,0.853-0.852h0.082v-0.459c0-0.798,0.201-1.379,0.58-1.758c0.379-0.379,0.937-0.568,1.664-0.568
				c0.323,0,0.606,0.014,0.838,0.054c0.354,0.054,0.703,0.365,0.703,0.825s-0.38,0.852-0.839,0.852h-0.176
				c-0.478,0-0.744,0.244-0.744,0.784v0.284h0.894c0.476,0,0.854,0.365,0.854,0.838s-0.379,0.838-0.854,0.838h-0.862v4.542
				c0,0.568-0.461,1.027-1.027,1.027c-0.567,0-1.026-0.459-1.026-1.027L412.864,199.603L412.864,199.603z M417.649,196.115
				c0-0.595,0.5-0.96,1.147-0.96s1.147,0.365,1.147,0.96v0.027c0,0.595-0.5,0.973-1.147,0.973s-1.147-0.378-1.147-0.973V196.115z
				 M417.77,198.792c0-0.568,0.461-1.028,1.027-1.028c0.565,0,1.024,0.46,1.024,1.028v5.354c0,0.568-0.459,1.027-1.024,1.027
				c-0.566,0-1.027-0.459-1.027-1.027V198.792z"/>
			<path fill="#B54147" d="M421.401,201.509v-0.027c0-2.068,1.582-3.771,3.801-3.771c1.097,0,1.865,0.297,2.476,0.811
				c0.135,0.108,0.321,0.352,0.321,0.703c0,0.514-0.418,0.919-0.932,0.919c-0.271,0-0.476-0.108-0.597-0.203
				c-0.365-0.284-0.744-0.459-1.283-0.459c-1.026,0-1.758,0.906-1.758,1.974v0.027c0,1.109,0.717,2.001,1.838,2.001
				c0.541,0,0.961-0.189,1.353-0.5c0.108-0.081,0.312-0.189,0.558-0.189c0.483,0,0.862,0.392,0.862,0.879
				c0,0.271-0.118,0.487-0.297,0.649c-0.606,0.554-1.379,0.933-2.565,0.933C422.993,205.254,421.401,203.578,421.401,201.509z"/>
			<path fill="#B54147" d="M429.444,196.115c0-0.595,0.5-0.96,1.147-0.96c0.646,0,1.146,0.365,1.146,0.96v0.027
				c0,0.595-0.5,0.973-1.146,0.973c-0.647,0-1.147-0.378-1.147-0.973V196.115z M429.565,198.792c0-0.568,0.459-1.028,1.026-1.028
				c0.565,0,1.024,0.46,1.024,1.028v5.354c0,0.568-0.459,1.027-1.024,1.027c-0.567,0-1.026-0.459-1.026-1.027V198.792z"/>
			<path fill="#B54147" d="M433.551,198.792c0-0.568,0.459-1.028,1.024-1.028c0.567,0,1.026,0.46,1.026,1.028v0.081
				c0.474-0.608,1.082-1.163,2.123-1.163c1.556,0,2.461,1.027,2.461,2.69v3.745c0,0.568-0.461,1.027-1.026,1.027
				s-1.026-0.459-1.026-1.027v-3.096c0-0.973-0.459-1.473-1.242-1.473c-0.785,0-1.285,0.5-1.285,1.473v3.096
				c0,0.568-0.459,1.027-1.026,1.027c-0.565,0-1.024-0.459-1.024-1.027L433.551,198.792L433.551,198.792z"/>
			<path fill="#B54147" d="M441.534,203.01v-0.027c0-1.582,1.203-2.312,2.92-2.312c0.729,0,1.261,0.122,1.771,0.297v-0.122
				c0-0.852-0.526-1.325-1.555-1.325c-0.568,0-1.027,0.081-1.42,0.203c-0.121,0.041-0.203,0.054-0.3,0.054
				c-0.476,0-0.853-0.365-0.853-0.838c0-0.365,0.229-0.676,0.554-0.797c0.649-0.244,1.354-0.379,2.312-0.379
				c1.123,0,1.935,0.297,2.445,0.812c0.54,0.541,0.782,1.338,0.782,2.312v3.299c0,0.554-0.442,0.987-1,0.987
				c-0.595,0-0.983-0.419-0.983-0.852v-0.014c-0.5,0.554-1.188,0.919-2.188,0.919C442.656,205.227,441.534,204.443,441.534,203.01z
				 M446.256,202.537v-0.365c-0.354-0.163-0.812-0.271-1.312-0.271c-0.879,0-1.42,0.352-1.42,1v0.027
				c0,0.554,0.461,0.879,1.122,0.879C445.605,203.808,446.256,203.28,446.256,202.537z"/>
			<path fill="#B54147" d="M449.993,204.091c-0.229-0.162-0.392-0.459-0.392-0.784c0-0.541,0.433-0.96,0.974-0.96
				c0.271,0,0.459,0.095,0.597,0.189c0.717,0.527,1.502,0.852,2.422,0.852c0.853,0,1.365-0.338,1.365-0.892v-0.027
				c0-0.527-0.326-0.798-1.906-1.204c-1.906-0.486-3.14-1.014-3.14-2.893v-0.027c0-1.717,1.382-2.853,3.312-2.853
				c1.147,0,2.147,0.297,3,0.838c0.229,0.135,0.461,0.419,0.461,0.825c0,0.541-0.434,0.96-0.975,0.96
				c-0.203,0-0.365-0.054-0.527-0.148c-0.688-0.406-1.338-0.636-1.985-0.636c-0.799,0-1.217,0.365-1.217,0.825v0.027
				c0,0.622,0.403,0.825,2.04,1.244c1.921,0.5,3.003,1.189,3.003,2.839v0.027c0,1.879-1.435,2.934-3.476,2.934
				C452.309,205.227,451.051,204.849,449.993,204.091z"/>
			<path fill="#B54147" d="M458.186,203.01v-0.027c0-1.582,1.203-2.312,2.921-2.312c0.729,0,1.258,0.122,1.771,0.297v-0.122
				c0-0.852-0.527-1.325-1.558-1.325c-0.565,0-1.024,0.081-1.42,0.203c-0.121,0.041-0.203,0.054-0.298,0.054
				c-0.475,0-0.853-0.365-0.853-0.838c0-0.365,0.229-0.676,0.554-0.797c0.647-0.244,1.354-0.379,2.312-0.379
				c1.123,0,1.937,0.297,2.447,0.812c0.541,0.541,0.782,1.338,0.782,2.312v3.299c0,0.554-0.444,0.987-1,0.987
				c-0.594,0-0.985-0.419-0.985-0.852v-0.014c-0.5,0.554-1.188,0.919-2.188,0.919C459.307,205.227,458.186,204.443,458.186,203.01z
				 M462.905,202.537v-0.365c-0.353-0.163-0.812-0.271-1.312-0.271c-0.879,0-1.42,0.352-1.42,1v0.027
				c0,0.554,0.461,0.879,1.123,0.879C462.254,203.808,462.905,203.28,462.905,202.537z"/>
			<path fill="#B54147" d="M466.615,198.792c0-0.568,0.461-1.028,1.028-1.028c0.566,0,1.027,0.46,1.027,1.028v0.081
				c0.473-0.608,1.08-1.163,2.121-1.163c1.555,0,2.461,1.027,2.461,2.69v3.745c0,0.568-0.459,1.027-1.027,1.027
				c-0.567,0-1.026-0.459-1.026-1.027v-3.096c0-0.973-0.459-1.473-1.244-1.473c-0.78,0-1.28,0.5-1.28,1.473v3.096
				c0,0.568-0.461,1.027-1.027,1.027c-0.567,0-1.028-0.459-1.028-1.027L466.615,198.792L466.615,198.792z"/>
			<path fill="#B54147" d="M475.254,196.669c0-0.582,0.459-1.041,1.041-1.041h5.299c0.524,0,0.944,0.419,0.944,0.946
				c0,0.527-0.42,0.946-0.944,0.946h-4.258v2.014h3.647c0.526,0,0.944,0.419,0.944,0.947c0,0.527-0.418,0.946-0.944,0.946h-3.647
				v2.704c0,0.582-0.461,1.041-1.041,1.041c-0.582,0-1.041-0.459-1.041-1.041V196.669L475.254,196.669z"/>
			<path fill="#B54147" d="M483.903,198.792c0-0.568,0.459-1.028,1.026-1.028c0.565,0,1.025,0.46,1.025,1.028v0.324
				c0.299-0.703,0.784-1.352,1.395-1.352c0.636,0,1,0.419,1,1c0,0.541-0.354,0.865-0.771,0.96c-1.04,0.243-1.622,1.041-1.622,2.501
				v1.92c0,0.568-0.459,1.027-1.025,1.027c-0.567,0-1.026-0.459-1.026-1.027L483.903,198.792L483.903,198.792z"/>
			<path fill="#B54147" d="M488.781,203.01v-0.027c0-1.582,1.203-2.312,2.92-2.312c0.729,0,1.261,0.122,1.771,0.297v-0.122
				c0-0.852-0.526-1.325-1.555-1.325c-0.568,0-1.027,0.081-1.423,0.203c-0.118,0.041-0.2,0.054-0.297,0.054
				c-0.476,0-0.853-0.365-0.853-0.838c0-0.365,0.229-0.676,0.554-0.797c0.649-0.244,1.354-0.379,2.312-0.379
				c1.123,0,1.935,0.297,2.444,0.812c0.541,0.541,0.783,1.338,0.783,2.312v3.299c0,0.554-0.445,0.987-1,0.987
				c-0.595,0-0.985-0.419-0.985-0.852v-0.014c-0.5,0.554-1.188,0.919-2.188,0.919C489.903,205.227,488.781,204.443,488.781,203.01z
				 M493.5,202.537v-0.365c-0.354-0.163-0.812-0.271-1.312-0.271c-0.879,0-1.42,0.352-1.42,1v0.027c0,0.554,0.461,0.879,1.123,0.879
				C492.85,203.808,493.5,203.28,493.5,202.537z"/>
			<path fill="#B54147" d="M497.213,198.792c0-0.568,0.461-1.028,1.026-1.028s1.026,0.46,1.026,1.028v0.081
				c0.474-0.608,1.08-1.163,2.121-1.163c1.556,0,2.461,1.027,2.461,2.69v3.745c0,0.568-0.459,1.027-1.026,1.027
				c-0.565,0-1.024-0.459-1.024-1.027v-3.096c0-0.973-0.459-1.473-1.244-1.473c-0.783,0-1.283,0.5-1.283,1.473v3.096
				c0,0.568-0.461,1.027-1.026,1.027s-1.026-0.459-1.026-1.027L497.213,198.792L497.213,198.792z"/>
			<path fill="#B54147" d="M505.281,201.509v-0.027c0-2.068,1.582-3.771,3.799-3.771c1.099,0,1.865,0.297,2.478,0.811
				c0.136,0.108,0.324,0.352,0.324,0.703c0,0.514-0.42,0.919-0.937,0.919c-0.271,0-0.474-0.108-0.594-0.203
				c-0.365-0.284-0.744-0.459-1.285-0.459c-1.027,0-1.759,0.906-1.759,1.974v0.027c0,1.109,0.718,2.001,1.841,2.001
				c0.541,0,0.959-0.189,1.354-0.5c0.104-0.081,0.312-0.189,0.555-0.189c0.486,0,0.865,0.392,0.865,0.879
				c0,0.271-0.123,0.487-0.302,0.649c-0.604,0.554-1.379,0.933-2.565,0.933C506.877,205.254,505.281,203.578,505.281,201.509z"/>
			<path fill="#B54147" d="M513.323,196.115c0-0.595,0.5-0.96,1.147-0.96s1.147,0.365,1.147,0.96v0.027
				c0,0.595-0.5,0.973-1.147,0.973s-1.147-0.378-1.147-0.973V196.115z M513.444,198.792c0-0.568,0.461-1.028,1.026-1.028
				s1.026,0.46,1.026,1.028v5.354c0,0.568-0.461,1.027-1.026,1.027s-1.026-0.459-1.026-1.027V198.792z"/>
			<path fill="#B54147" d="M517.24,204.402c-0.217-0.135-0.394-0.378-0.394-0.703c0-0.459,0.353-0.811,0.812-0.811
				c0.147,0,0.297,0.041,0.406,0.108c0.688,0.433,1.379,0.649,1.959,0.649c0.596,0,0.864-0.216,0.864-0.541v-0.027
				c0-0.446-0.701-0.595-1.5-0.838c-1.016-0.297-2.162-0.771-2.162-2.177v-0.027c0-1.474,1.188-2.298,2.646-2.298
				c0.76,0,1.541,0.203,2.243,0.554c0.302,0.149,0.487,0.419,0.487,0.771c0,0.46-0.364,0.812-0.825,0.812
				c-0.146,0-0.242-0.027-0.379-0.095c-0.58-0.284-1.136-0.46-1.564-0.46c-0.503,0-0.76,0.216-0.76,0.5v0.027
				c0,0.406,0.688,0.595,1.476,0.865c1.017,0.338,2.188,0.825,2.188,2.15v0.027c0,1.609-1.203,2.339-2.771,2.339
				C519.077,205.227,518.116,204.97,517.24,204.402z"/>
			<path fill="#B54147" d="M523.862,201.509v-0.027c0-2.068,1.582-3.771,3.801-3.771c1.097,0,1.865,0.297,2.476,0.811
				c0.136,0.108,0.324,0.352,0.324,0.703c0,0.514-0.421,0.919-0.935,0.919c-0.271,0-0.476-0.108-0.597-0.203
				c-0.364-0.284-0.744-0.459-1.282-0.459c-1.027,0-1.759,0.906-1.759,1.974v0.027c0,1.109,0.718,2.001,1.838,2.001
				c0.541,0,0.962-0.189,1.354-0.5c0.107-0.081,0.312-0.189,0.556-0.189c0.485,0,0.864,0.392,0.864,0.879
				c0,0.271-0.12,0.487-0.297,0.649c-0.608,0.554-1.381,0.933-2.567,0.933C525.454,205.254,523.862,203.578,523.862,201.509z"/>
			<path fill="#B54147" d="M531.375,201.509v-0.027c0-2.082,1.678-3.771,3.936-3.771c2.244,0,3.906,1.663,3.906,3.745v0.027
				c0,2.082-1.679,3.772-3.937,3.772C533.036,205.254,531.375,203.591,531.375,201.509z M537.19,201.509v-0.027
				c0-1.068-0.771-2-1.906-2c-1.176,0-1.879,0.906-1.879,1.974v0.027c0,1.068,0.771,2.001,1.905,2.001
				C536.487,203.483,537.19,202.577,537.19,201.509z"/>
		</g>
		<g>
			<polygon fill="#B54147" points="286.568,58.104 254.066,74.945 254.066,70.23 248.301,70.23 248.301,77.88 247.908,78.081 
				213.691,95.747 213.691,100.348 216.018,99.324 220.645,97.148 221.383,97.148 221.383,97.148 221.383,98.75 223.625,98.75 
				223.625,100.425 223.625,165.403 219.139,165.403 219.139,171.172 222.023,171.172 222.023,174.697 223.625,174.697 
				223.625,223.084 213.691,223.084 213.691,227.891 359.815,227.891 359.815,223.084 349.881,223.084 349.881,174.697 
				352.125,174.697 352.125,171.172 354.365,171.172 354.365,165.403 349.881,165.403 349.881,100.425 349.881,98.75 352.766,98.75 
				352.766,96.855 357.201,99.068 359.815,100.348 359.815,95.747 287.494,58.562 			"/>
		</g>
		<g>
			<polygon fill="#B54147" points="467.361,243.799 442.492,256.683 442.492,253.075 438.078,253.075 438.078,258.927 
				437.781,259.083 411.604,272.599 411.604,276.12 413.385,275.336 416.925,273.67 417.487,273.67 417.487,273.67 417.487,274.896 
				419.199,274.896 419.199,276.177 419.199,325.893 415.773,325.893 415.773,330.305 417.979,330.305 417.979,333.001 
				419.199,333.001 419.199,370.023 411.604,370.023 411.604,373.7 523.402,373.7 523.402,370.023 515.801,370.023 515.801,333.001 
				517.519,333.001 517.519,330.305 519.234,330.305 519.234,325.893 515.801,325.893 515.801,276.177 515.801,274.896 
				518.01,274.896 518.01,273.446 521.405,275.141 523.402,276.12 523.402,272.599 468.069,244.147 			"/>
		</g>
		<path opacity="0.15" fill="#878787" enable-background="new    " d="M285.49,342.898c0-23.406-18.971-42.379-42.377-42.379
			c-23.404,0-42.379,18.973-42.379,42.379s18.975,42.381,42.379,42.381C266.52,385.279,285.49,366.305,285.49,342.898z"/>
		<circle opacity="0.15" fill="#878787" enable-background="new    " cx="329.3" cy="342.899" r="41.103"/>
		<g>
			<g>
				<text transform="matrix(0.8867 0 0 1 242.7893 276.6338)" fill="#4D4D4D" font-family="'Arial-BoldMT'" font-size="9.5833">ENTREPRENEURS AND </text>
				<text transform="matrix(0.8867 0 0 1 248.8591 285.9209)" fill="#4D4D4D" font-family="'Arial-BoldMT'" font-size="9.5833">GREAT COMPANIES  </text>
			</g>
		</g>
		<g>
			<g>
				<text transform="matrix(1.0244 0 0 1 210.0237 341.4404)" fill="#4D4D4D" font-family="'ArialMT'" font-size="8.5439">SMALL/MEDIUM </text>
				<text transform="matrix(1.0244 0 0 1 218.2996 348.917)" fill="#4D4D4D" font-family="'ArialMT'" font-size="8.5439">COMPANIES </text>
			</g>
		</g>
		<g>
			<g>
				<text transform="matrix(0.8552 0 0 1 314.1448 341.375)" fill="#4D4D4D" font-family="'ArialMT'" font-size="8.9239">ITALIAN</text>
				<text transform="matrix(0.8552 0 0 1 298.4592 349.1836)" fill="#4D4D4D" font-family="'ArialMT'" font-size="8.9239">WEB STARTUPS</text>
			</g>
		</g>
		<g>
			<polygon fill="#B54147" points="106.027,243.799 130.893,256.683 130.893,253.075 135.305,253.075 135.305,258.927 
				135.605,259.083 161.783,272.599 161.783,276.12 160.002,275.336 156.463,273.67 155.9,273.67 155.9,273.67 155.9,274.896 
				154.185,274.896 154.185,276.177 154.185,325.893 157.615,325.893 157.615,330.305 155.41,330.305 155.41,333.001 
				154.185,333.001 154.185,370.023 161.783,370.023 161.783,373.7 49.984,373.7 49.984,370.023 57.586,370.023 57.586,333.001 
				55.869,333.001 55.869,330.305 54.152,330.305 54.152,325.893 57.586,325.893 57.586,276.177 57.586,274.896 55.38,274.896 
				55.38,273.446 51.984,275.141 49.984,276.12 49.984,272.599 105.318,244.147 			"/>
		</g>
		<circle opacity="0.5" fill="#666666" enable-background="new    " cx="467.303" cy="292.626" r="32.917"/>
		<circle opacity="0.5" fill="#666666" enable-background="new    " cx="106.289" cy="292.626" r="32.918"/>
		<circle fill="#666666" cx="106.034" cy="292.626" r="29.796"/>
		<circle fill="#435063" cx="286.754" cy="140.268" r="38.492"/>
		<circle fill="#666666" cx="467.304" cy="292.626" r="29.795"/>
		<g>
			<text transform="matrix(1 0 0 1 86.0706 289.751)" fill="#FFFFFF" font-family="'Arial-BoldMT'" font-size="11.5834">OM Inc</text>
		</g>
		<g>
			<g>
				<text transform="matrix(1 0 0 1 445.2502 289.751)" fill="#FFFFFF" font-family="'Arial-BoldMT'" font-size="11.5834">OSF Inc</text>
			</g>
		</g>
		<g>
			<g>
				<text transform="matrix(1 0 0 1 447.1389 297.8809)" fill="#FFFFFF" font-family="'Arial-ItalicMT'" font-size="7.5963">web startup  </text>
				<text transform="matrix(1 0 0 1 447.762 304.2109)" fill="#FFFFFF" font-family="'Arial-ItalicMT'" font-size="7.5963">accelerator</text>
			</g>
		</g>
		<g opacity="0.7">
			<polygon fill="#435063" points="304,235.833 285.03,251.475 266,235.833 266,184.212 284.919,199.855 304,184.212 			"/>
			<polygon fill="#435063" points="481,373.23 467.023,384.459 453,373.23 453,336.178 466.939,347.406 481,336.178 			"/>
			<polygon fill="#435063" points="120,373.23 106.021,384.459 92,373.23 92,336.178 105.939,347.406 120,336.178 			"/>
			
				<circle fill="none" stroke="#435063" stroke-width="5.1857" stroke-miterlimit="10" stroke-dasharray="5,1" cx="467.734" cy="440.678" r="87.715"/>
			<polygon fill="#435063" points="120,373.23 106.023,384.459 92,373.23 92,336.178 105.939,347.406 120,336.178 			"/>
			
				<circle fill="none" stroke="#435063" stroke-width="5.1857" stroke-miterlimit="10" stroke-dasharray="5,1" cx="106.734" cy="440.678" r="87.715"/>
			
				<circle fill="none" stroke="#435063" stroke-width="5.1738" stroke-miterlimit="10" stroke-dasharray="6.95,1.39" cx="286.077" cy="331.376" r="121.923"/>
		</g>
		<g>
			<text transform="matrix(1 0 0 1 263.7805 470.4072)" fill="#435063" font-family="'ArialMT'" font-size="9.8907">Ideas Flux</text>
		</g>
		<rect x="239.98" y="205.686" fill="none" width="89.708" height="31.113"/>
		<text transform="matrix(1 0 0 1 265.2795 213.5625)" fill="#FFFFFF" font-family="'Arial-BoldMT'" font-size="11">SMART</text>
		<text transform="matrix(1 0 0 1 246.6418 222.5625)" fill="#FFFFFF" font-family="'Arial-BoldMT'" font-size="11">NETWORKING</text>
		<g>
			<g>
				<g>
					<path fill="#666666" d="M52.293,315.535c0,1.559-1.275,2.834-2.834,2.834H27.926c-1.559,0-2.834-1.275-2.834-2.834v-21.532
						c0-1.56,1.275-2.834,2.834-2.834h21.533c1.559,0,2.834,1.274,2.834,2.834V315.535z"/>
				</g>
				
					<rect x="49.713" y="302.552" transform="matrix(0.7071 0.7071 -0.7071 0.7071 231.0626 52.3999)" fill="#666666" width="5.132" height="5.131"/>
			</g>
			<g>
				<rect x="29.404" y="304.438" fill="#FFFFFF" width="18.244" height="4.312"/>
				<path fill="#FFFFFF" d="M44,299.462h-5.975h-0.66v4.312h8.294v-0.332v-2.316C45.659,300.208,44.912,299.462,44,299.462z"/>
				<rect x="29.404" y="298.466" fill="#FFFFFF" width="1.658" height="12.604"/>
				<rect x="46.32" y="301.12" fill="#FFFFFF" width="1.66" height="9.95"/>
				<circle fill="#FFFFFF" cx="33.143" cy="300.297" r="1.818"/>
				<rect x="35.375" y="299.462" fill="#FFFFFF" width="1.326" height="3.647"/>
				<rect x="32.059" y="302.447" fill="#FFFFFF" width="4.646" height="1.326"/>
				<circle fill="#FFFFFF" cx="32.059" cy="303.109" r="0.664"/>
				<circle fill="#FFFFFF" cx="36.038" cy="299.462" r="0.663"/>
			</g>
			<circle fill="#FFFFFF" cx="30.233" cy="298.466" r="0.829"/>
			<circle fill="#FFFFFF" cx="47.15" cy="301.146" r="0.83"/>
		</g>
		<g>
			<g>
				<g>
					<path fill="#666666" d="M521.979,294.003c0-1.56,1.276-2.834,2.837-2.834h21.529c1.561,0,2.835,1.274,2.835,2.834v21.532
						c0,1.559-1.274,2.834-2.835,2.834h-21.529c-1.561,0-2.837-1.275-2.837-2.834V294.003z"/>
				</g>
				
					<rect x="519.408" y="301.872" transform="matrix(-0.7072 -0.707 0.707 -0.7072 675.8732 888.7775)" fill="#666666" width="5.13" height="5.131"/>
			</g>
			<g>
				<rect x="527.487" y="304.438" fill="#FFFFFF" width="18.246" height="4.312"/>
				<path fill="#FFFFFF" d="M542.085,299.462h-5.975h-0.663v4.312h8.293v-0.332v-2.316
					C543.74,300.208,542.994,299.462,542.085,299.462z"/>
				<rect x="527.488" y="298.466" fill="#FFFFFF" width="1.661" height="12.604"/>
				<rect x="544.406" y="301.12" fill="#FFFFFF" width="1.66" height="9.95"/>
				<circle fill="#FFFFFF" cx="531.229" cy="300.297" r="1.818"/>
				<rect x="533.461" y="299.462" fill="#FFFFFF" width="1.322" height="3.647"/>
				<rect x="530.143" y="302.447" fill="#FFFFFF" width="4.646" height="1.326"/>
				<circle fill="#FFFFFF" cx="530.144" cy="303.11" r="0.663"/>
				<circle fill="#FFFFFF" cx="534.12" cy="299.462" r="0.663"/>
			</g>
			<circle fill="#FFFFFF" cx="528.318" cy="298.466" r="0.83"/>
			<circle fill="#FFFFFF" cx="545.236" cy="301.146" r="0.83"/>
		</g>
		<g opacity="0.8">
			<circle opacity="0.5" fill="#808080" enable-background="new    " cx="76.27" cy="258.251" r="21.451"/>
		</g>
		<text transform="matrix(1 0 0 1 55.3582 260.2676)" fill="#FFFFFF" font-family="'Arial-BoldItalicMT'" font-size="7.3032">government</text>
		<g opacity="0.8">
			<circle opacity="0.5" fill="#808080" enable-background="new    " cx="497.27" cy="258.251" r="21.451"/>
		</g>
		<text transform="matrix(1 0 0 1 484.0667 257.2676)" fill="#FFFFFF" font-family="'Arial-BoldItalicMT'" font-size="7.3032">venture</text>
		<text transform="matrix(1 0 0 1 485.6897 263.708)" fill="#FFFFFF" font-family="'Arial-BoldItalicMT'" font-size="7.3032">capital</text>
		<circle opacity="0.5" fill="#435063" enable-background="new    " cx="286.753" cy="140.268" r="41.388"/>
		<circle fill="#435063" cx="286.754" cy="140.268" r="38.492"/>
		<g>
			<text transform="matrix(1 0 0 1 257.0281 136.9922)" fill="#FFFFFF" font-family="'Arial-BoldMT'" font-size="11.5834">OXIGENIO</text>
		</g>
		<g>
			<text transform="matrix(1 0 0 1 256.9246 145.916)" fill="#FFFFFF" font-family="'Arial-ItalicMT'" font-size="7.7222">strategy, method,</text>
			<text transform="matrix(1 0 0 1 271.5217 152.6729)" fill="#FFFFFF" font-family="'Arial-ItalicMT'" font-size="7.7222">creativity</text>
		</g>
		<g opacity="0.8">
			<circle opacity="0.5" fill="#808080" enable-background="new    " cx="286.777" cy="102.382" r="17.161"/>
		</g>
		<g opacity="0.8">
			<circle opacity="0.5" fill="#808080" enable-background="new    " cx="252.028" cy="102.382" r="17.161"/>
		</g>
		<g opacity="0.8">
			<circle opacity="0.5" fill="#808080" enable-background="new    " cx="321.527" cy="102.382" r="17.161"/>
		</g>
		<text transform="matrix(1 0 0 1 273.9412 100.9199)" fill="#FFFFFF" font-family="'Arial-BoldItalicMT'" font-size="5.9569">business</text>
		<text transform="matrix(1 0 0 1 274.1072 105.3887)" fill="#FFFFFF" font-family="'Arial-BoldItalicMT'" font-size="5.9569">partner 2</text>
		<text transform="matrix(1 0 0 1 307.7268 100.9199)" fill="#FFFFFF" font-family="'Arial-BoldItalicMT'" font-size="5.9569">business</text>
		<text transform="matrix(1 0 0 1 307.8928 105.3887)" fill="#FFFFFF" font-family="'Arial-BoldItalicMT'" font-size="5.9569">partner 3</text>
		<text transform="matrix(1 0 0 1 239.1912 100.9199)" fill="#FFFFFF" font-family="'Arial-BoldItalicMT'" font-size="5.9569">business</text>
		<text transform="matrix(1 0 0 1 239.3572 105.3887)" fill="#FFFFFF" font-family="'Arial-BoldItalicMT'" font-size="5.9569">partner 1</text>
		<g>
			<text transform="matrix(1 0 0 1 92.6287 301.1211)" fill="#FFFFFF" font-family="'Arial-ItalicMT'" font-size="7.5963">on site PM</text>
		</g>
		<g>
			
				<use xlink:href="#New_Symbol_1"  width="12.169" height="30.184" id="XMLID_4_" x="-6.084" y="-15.092" transform="matrix(-0.3157 0 0 -0.3157 89.6702 298.2646)" overflow="visible"/>
			
				<use xlink:href="#New_Symbol_1"  width="12.169" height="30.184" id="XMLID_1_" x="-6.084" y="-15.092" transform="matrix(-0.3157 0 0 -0.3157 85.1536 298.2646)" overflow="visible"/>
			
				<use xlink:href="#New_Symbol_1"  width="12.169" height="30.184" id="XMLID_2_" x="-6.084" y="-15.092" transform="matrix(-0.3157 0 0 -0.3157 80.7405 298.2646)" overflow="visible"/>
		</g>
		<g>
			<g>
				<g>
					<path fill="#B54147" d="M49.031,201.44v-0.027c0-2.69,2.122-4.894,5.042-4.894c2.924,0,5.019,2.177,5.019,4.867v0.027
						c0,2.69-2.122,4.894-5.042,4.894S49.031,204.131,49.031,201.44z M56.913,201.44v-0.027c0-1.622-1.19-2.974-2.866-2.974
						c-1.677,0-2.839,1.325-2.839,2.947v0.027c0,1.623,1.188,2.975,2.862,2.975C55.75,204.388,56.913,203.062,56.913,201.44z"/>
					<path fill="#B54147" d="M61.072,200.656H60.99c-0.476,0-0.854-0.365-0.854-0.838s0.379-0.852,0.854-0.852h0.078v-0.459
						c0-0.798,0.203-1.379,0.582-1.758c0.378-0.378,0.936-0.568,1.662-0.568c0.325,0,0.608,0.014,0.839,0.054
						c0.354,0.054,0.703,0.365,0.703,0.825s-0.379,0.852-0.839,0.852H63.84c-0.473,0-0.743,0.244-0.743,0.784v0.284h0.896
						c0.473,0,0.852,0.365,0.852,0.838c0,0.473-0.379,0.838-0.852,0.838h-0.865v4.542c0,0.568-0.46,1.027-1.028,1.027
						c-0.564,0-1.027-0.459-1.027-1.027V200.656L61.072,200.656z M66.237,200.656h-0.081c-0.474,0-0.853-0.365-0.853-0.838
						s0.379-0.852,0.853-0.852h0.081v-0.459c0-0.798,0.202-1.379,0.581-1.758s0.936-0.568,1.663-0.568
						c0.324,0,0.608,0.014,0.838,0.054c0.354,0.054,0.703,0.365,0.703,0.825s-0.379,0.852-0.838,0.852h-0.176
						c-0.474,0-0.744,0.244-0.744,0.784v0.284h0.896c0.473,0,0.852,0.365,0.852,0.838c0,0.473-0.379,0.838-0.852,0.838h-0.865v4.542
						c0,0.568-0.46,1.027-1.027,1.027s-1.026-0.459-1.026-1.027L66.237,200.656L66.237,200.656z M71.022,197.168
						c0-0.595,0.501-0.96,1.149-0.96c0.646,0,1.146,0.365,1.146,0.96v0.027c0,0.595-0.5,0.973-1.146,0.973
						c-0.648,0-1.149-0.378-1.149-0.973V197.168z M71.144,199.845c0-0.568,0.46-1.028,1.027-1.028c0.564,0,1.024,0.46,1.024,1.028
						v5.354c0,0.568-0.46,1.027-1.024,1.027c-0.567,0-1.027-0.459-1.027-1.027V199.845z"/>
					<path fill="#B54147" d="M74.775,202.562v-0.027c0-2.068,1.582-3.771,3.803-3.771c1.095,0,1.862,0.297,2.474,0.811
						c0.135,0.108,0.324,0.352,0.324,0.703c0,0.514-0.419,0.919-0.936,0.919c-0.271,0-0.474-0.108-0.595-0.203
						c-0.365-0.284-0.744-0.459-1.284-0.459c-1.024,0-1.758,0.906-1.758,1.974v0.027c0,1.109,0.717,2.001,1.839,2.001
						c0.54,0,0.96-0.189,1.354-0.5c0.105-0.081,0.312-0.189,0.555-0.189c0.486,0,0.865,0.392,0.865,0.879
						c0,0.271-0.122,0.487-0.298,0.649c-0.608,0.554-1.382,0.933-2.568,0.933C76.37,206.307,74.775,204.631,74.775,202.562z"/>
					<path fill="#B54147" d="M82.817,197.168c0-0.595,0.5-0.96,1.148-0.96c0.646,0,1.146,0.365,1.146,0.96v0.027
						c0,0.595-0.5,0.973-1.146,0.973c-0.648,0-1.148-0.378-1.148-0.973V197.168z M82.938,199.845c0-0.568,0.46-1.028,1.027-1.028
						c0.568,0,1.028,0.46,1.028,1.028v5.354c0,0.568-0.46,1.027-1.028,1.027c-0.567,0-1.027-0.459-1.027-1.027V199.845z"/>
					<path fill="#B54147" d="M86.924,199.845c0-0.568,0.46-1.028,1.027-1.028c0.565,0,1.025,0.46,1.025,1.028v0.081
						c0.476-0.608,1.081-1.163,2.122-1.163c1.555,0,2.461,1.027,2.461,2.69v3.745c0,0.568-0.46,1.027-1.024,1.027
						c-0.568,0-1.028-0.459-1.028-1.027v-3.096c0-0.973-0.459-1.473-1.243-1.473s-1.284,0.5-1.284,1.473v3.096
						c0,0.568-0.46,1.027-1.025,1.027c-0.567,0-1.027-0.459-1.027-1.027L86.924,199.845L86.924,199.845z"/>
					<path fill="#B54147" d="M94.91,204.063v-0.027c0-1.582,1.2-2.312,2.921-2.312c0.729,0,1.257,0.122,1.771,0.297V201.9
						c0-0.852-0.524-1.325-1.555-1.325c-0.567,0-1.027,0.081-1.419,0.203c-0.122,0.041-0.203,0.054-0.298,0.054
						c-0.477,0-0.854-0.365-0.854-0.838c0-0.365,0.229-0.676,0.557-0.797c0.646-0.244,1.353-0.379,2.312-0.379
						c1.122,0,1.933,0.297,2.446,0.812c0.541,0.541,0.784,1.338,0.784,2.312v3.299c0,0.554-0.446,0.987-1,0.987
						c-0.598,0-0.987-0.419-0.987-0.852v-0.014c-0.5,0.554-1.189,0.919-2.189,0.919C96.032,206.28,94.91,205.496,94.91,204.063z
						 M99.629,203.59v-0.365c-0.354-0.163-0.812-0.271-1.312-0.271c-0.879,0-1.42,0.352-1.42,1v0.027
						c0,0.554,0.46,0.879,1.122,0.879C98.98,204.861,99.629,204.333,99.629,203.59z"/>
					<path fill="#B54147" d="M103.56,197.668c0-0.582,0.46-1.041,1.041-1.041h0.229c0.443,0,0.757,0.23,0.943,0.541l2.518,4.096
						l2.525-4.11c0.219-0.352,0.517-0.527,0.936-0.527h0.229c0.581,0,1.041,0.459,1.041,1.041v7.517c0,0.582-0.46,1.041-1.041,1.041
						c-0.565,0-1.025-0.473-1.025-1.041v-4.718l-1.825,2.812c-0.216,0.325-0.486,0.527-0.865,0.527
						c-0.378,0-0.646-0.203-0.865-0.527l-1.798-2.771v4.705c0,0.567-0.459,1.014-1.024,1.014c-0.567,0-1.017-0.446-1.017-1.014
						L103.56,197.668L103.56,197.668z"/>
					<path fill="#B54147" d="M114.721,202.562v-0.027c0-2.082,1.677-3.771,3.935-3.771c2.244,0,3.907,1.663,3.907,3.745v0.027
						c0,2.082-1.677,3.772-3.935,3.772C116.384,206.307,114.721,204.645,114.721,202.562z M120.534,202.562v-0.027
						c0-1.068-0.771-2-1.906-2c-1.176,0-1.879,0.906-1.879,1.974v0.027c0,1.068,0.771,2.001,1.903,2.001
						C119.831,204.536,120.534,203.63,120.534,202.562z"/>
					<path fill="#B54147" d="M124.046,199.845c0-0.568,0.46-1.028,1.028-1.028c0.564,0,1.024,0.46,1.024,1.028v0.081
						c0.476-0.608,1.081-1.163,2.122-1.163c1.555,0,2.461,1.027,2.461,2.69v3.745c0,0.568-0.46,1.027-1.024,1.027
						c-0.568,0-1.028-0.459-1.028-1.027v-3.096c0-0.973-0.459-1.473-1.243-1.473s-1.284,0.5-1.284,1.473v3.096
						c0,0.568-0.46,1.027-1.024,1.027c-0.568,0-1.028-0.459-1.028-1.027L124.046,199.845L124.046,199.845z"/>
					<path fill="#B54147" d="M132.803,204.09v-3.434h-0.067c-0.483,0-0.879-0.392-0.879-0.879c0-0.487,0.396-0.878,0.879-0.878
						h0.067v-0.906c0-0.567,0.46-1.027,1.028-1.027c0.564,0,1.024,0.46,1.024,1.027v0.906h0.905c0.487,0,0.879,0.392,0.879,0.878
						c0,0.486-0.392,0.879-0.879,0.879h-0.905v3.096c0,0.473,0.202,0.703,0.662,0.703c0.067,0,0.203-0.014,0.243-0.014
						c0.46,0,0.852,0.379,0.852,0.852c0,0.365-0.24,0.662-0.524,0.771c-0.378,0.148-0.729,0.203-1.176,0.203
						C133.656,206.267,132.803,205.767,132.803,204.09z"/>
					<path fill="#B54147" d="M138.073,199.845c0-0.568,0.463-1.028,1.028-1.028c0.567,0,1.027,0.46,1.027,1.028v0.324
						c0.297-0.703,0.784-1.352,1.393-1.352c0.635,0,1,0.419,1,1c0,0.541-0.352,0.865-0.771,0.96
						c-1.041,0.243-1.622,1.041-1.622,2.501v1.92c0,0.568-0.46,1.027-1.027,1.027c-0.565,0-1.025-0.459-1.025-1.027L138.073,199.845
						L138.073,199.845z"/>
					<path fill="#B54147" d="M146.953,206.307c-2.18,0-3.786-1.527-3.786-3.745v-0.027c0-2.068,1.474-3.771,3.583-3.771
						c2.42,0,3.485,1.987,3.485,3.488c0,0.595-0.419,0.987-0.96,0.987h-4.066c0.203,0.933,0.852,1.419,1.771,1.419
						c0.568,0,1.041-0.176,1.46-0.486c0.149-0.108,0.284-0.163,0.501-0.163c0.459,0,0.798,0.354,0.798,0.812
						c0,0.27-0.119,0.473-0.271,0.608C148.832,205.969,148.008,206.307,146.953,206.307z M148.278,201.954
						c-0.118-0.919-0.659-1.542-1.524-1.542c-0.854,0-1.406,0.608-1.568,1.542H148.278z"/>
					<path fill="#B54147" d="M151.37,204.063v-0.027c0-1.582,1.2-2.312,2.921-2.312c0.729,0,1.257,0.122,1.771,0.297V201.9
						c0-0.852-0.524-1.325-1.555-1.325c-0.567,0-1.027,0.081-1.419,0.203c-0.122,0.041-0.203,0.054-0.298,0.054
						c-0.477,0-0.854-0.365-0.854-0.838c0-0.365,0.229-0.676,0.557-0.797c0.646-0.244,1.353-0.379,2.312-0.379
						c1.122,0,1.933,0.297,2.446,0.812c0.541,0.541,0.784,1.338,0.784,2.312v3.299c0,0.554-0.445,0.987-1,0.987
						c-0.598,0-0.987-0.419-0.987-0.852v-0.014c-0.5,0.554-1.189,0.919-2.189,0.919C152.492,206.28,151.37,205.496,151.37,204.063z
						 M156.089,203.59v-0.365c-0.354-0.163-0.812-0.271-1.312-0.271c-0.879,0-1.42,0.352-1.42,1v0.027
						c0,0.554,0.46,0.879,1.122,0.879C155.44,204.861,156.089,204.333,156.089,203.59z"/>
					<path fill="#B54147" d="M159.898,197.222c0-0.568,0.46-1.027,1.027-1.027c0.568,0,1.028,0.459,1.028,1.027v7.977
						c0,0.568-0.46,1.027-1.028,1.027c-0.567,0-1.027-0.459-1.027-1.027V197.222z"/>
				</g>
				<g>
					<path d="M61.08,208.189c0.04-0.151,0.131-0.231,0.271-0.231c0.15,0,0.241,0.121,0.201,0.282l-0.372,1.396h1.508
						c0.131,0,0.231,0.101,0.231,0.231c0,0.121-0.11,0.221-0.231,0.221H61.06l-0.875,3.268c-0.03,0.131-0.05,0.312-0.05,0.432
						c0,0.422,0.321,0.614,0.834,0.614c0.131,0,0.282-0.021,0.413-0.061c0.201-0.061,0.312,0.03,0.312,0.181
						c0,0.11-0.067,0.181-0.198,0.231c-0.174,0.061-0.385,0.101-0.637,0.101c-0.684,0-1.227-0.312-1.227-1.016
						c0-0.161,0.03-0.362,0.061-0.493l0.875-3.258h-0.48c-0.131,0-0.231-0.101-0.231-0.231c0-0.121,0.111-0.221,0.231-0.221h0.604
						L61.08,208.189z"/>
					<path d="M67.422,214.575c-0.04,0.151-0.13,0.231-0.271,0.231c-0.147,0-0.238-0.121-0.198-0.281l0.715-2.695
						c0.05-0.191,0.08-0.442,0.08-0.634c0-0.764-0.503-1.237-1.317-1.237c-0.875,0-1.84,0.794-2.142,1.911l-0.728,2.705
						c-0.04,0.151-0.13,0.231-0.271,0.231c-0.15,0-0.241-0.121-0.201-0.281l1.851-6.908c0.04-0.151,0.131-0.231,0.271-0.231
						c0.148,0,0.241,0.121,0.201,0.282l-0.784,2.926c0.503-0.604,1.076-1.076,1.938-1.076c1.019,0,1.683,0.644,1.683,1.629
						c0,0.221-0.054,0.483-0.11,0.724L67.422,214.575z"/>
					<path d="M73.241,213.84c0.05-0.04,0.117-0.07,0.188-0.07c0.121,0,0.211,0.091,0.211,0.211c0,0.08-0.04,0.151-0.101,0.201
						c-0.502,0.422-1.105,0.704-1.92,0.704c-1.311,0-2.232-0.885-2.232-2.152c0-1.599,1.297-3.218,2.966-3.218
						c1.287,0,1.941,0.905,1.941,1.961c0,0.271-0.04,0.523-0.07,0.664s-0.131,0.231-0.302,0.231H69.94
						c-0.01,0.11-0.02,0.231-0.02,0.342c0,1.036,0.691,1.709,1.699,1.709C72.255,214.424,72.758,214.233,73.241,213.84z
						 M73.754,211.93c0.02-0.091,0.04-0.231,0.04-0.422c0-0.825-0.452-1.539-1.448-1.539c-1.146,0-2.021,0.905-2.312,1.961H73.754z"
						/>
					<path d="M78.856,213.458l-0.302,1.116c-0.04,0.151-0.13,0.231-0.271,0.231c-0.15,0-0.241-0.121-0.2-0.281l1.85-6.908
						c0.04-0.151,0.131-0.231,0.271-0.231c0.148,0,0.238,0.121,0.198,0.282l-0.805,2.977c0.513-0.614,1.217-1.126,2.132-1.126
						c1.188,0,2.062,0.895,2.062,2.162c0,1.82-1.367,3.218-2.896,3.218C79.751,214.896,79.117,214.192,78.856,213.458z
						 M83.26,211.739c0-1.056-0.653-1.76-1.589-1.76c-1.276,0-2.563,1.297-2.563,2.665c0,0.985,0.714,1.79,1.771,1.79
						C82.265,214.434,83.26,213.157,83.26,211.739z"/>
					<path d="M88.415,214.524l0.181-0.714c-0.503,0.603-1.076,1.076-1.94,1.076c-1.016,0-1.68-0.644-1.68-1.629
						c0-0.221,0.05-0.483,0.11-0.724l0.714-2.705c0.041-0.15,0.131-0.231,0.271-0.231c0.151,0,0.241,0.121,0.201,0.281l-0.714,2.695
						c-0.05,0.191-0.08,0.442-0.08,0.633c0,0.764,0.503,1.237,1.317,1.237c0.875,0,1.84-0.794,2.142-1.911l0.727-2.705
						c0.041-0.15,0.131-0.231,0.271-0.231c0.151,0,0.241,0.121,0.201,0.281l-1.247,4.696c-0.04,0.151-0.13,0.231-0.271,0.231
						C88.465,214.806,88.374,214.685,88.415,214.524z"/>
					<path d="M94.022,213.408c0-0.392-0.221-0.684-1.116-1.016c-0.975-0.362-1.438-0.704-1.438-1.377c0-0.815,0.744-1.488,1.9-1.488
						c0.634,0,1.324,0.281,1.669,0.543c0.081,0.06,0.131,0.13,0.131,0.231c0,0.131-0.104,0.231-0.231,0.231
						c-0.06,0-0.13-0.03-0.16-0.05c-0.433-0.302-0.915-0.503-1.458-0.503c-0.862,0-1.325,0.473-1.325,0.956
						c0,0.392,0.198,0.633,1.154,1.005c1.025,0.402,1.397,0.774,1.397,1.388c0,0.895-0.875,1.549-1.911,1.549
						c-0.714,0-1.397-0.231-2.001-0.724c-0.07-0.061-0.12-0.141-0.12-0.231c0-0.131,0.101-0.241,0.231-0.241
						c0.067,0,0.141,0.04,0.221,0.101c0.533,0.442,1.104,0.644,1.729,0.644C93.348,214.424,94.022,214.021,94.022,213.408z"/>
					<path d="M96.292,214.575c-0.041,0.151-0.131,0.231-0.271,0.231c-0.148,0-0.242-0.121-0.201-0.281l1.26-4.696
						c0.04-0.15,0.131-0.231,0.271-0.231c0.15,0,0.241,0.121,0.201,0.281L96.292,214.575z M97.75,208.35
						c-0.185,0-0.305-0.121-0.265-0.281l0.07-0.262c0.04-0.151,0.171-0.231,0.342-0.231c0.184,0,0.305,0.121,0.265,0.282
						l-0.07,0.262C98.051,208.27,97.921,208.35,97.75,208.35z"/>
					<path d="M99.98,209.878l-0.181,0.714c0.503-0.604,1.076-1.076,1.938-1.076c1.019,0,1.683,0.644,1.683,1.629
						c0,0.221-0.051,0.483-0.11,0.724l-0.715,2.705c-0.04,0.151-0.13,0.231-0.271,0.231c-0.15,0-0.241-0.121-0.201-0.281
						l0.715-2.695c0.05-0.191,0.08-0.442,0.08-0.634c0-0.764-0.503-1.237-1.317-1.237c-0.875,0-1.84,0.794-2.142,1.911l-0.728,2.705
						c-0.04,0.151-0.13,0.231-0.271,0.231c-0.15,0-0.241-0.121-0.201-0.281l1.247-4.696c0.04-0.15,0.131-0.231,0.271-0.231
						C99.93,209.597,100.02,209.718,99.98,209.878z"/>
					<path d="M108.434,213.84c0.05-0.04,0.12-0.07,0.19-0.07c0.121,0,0.211,0.091,0.211,0.211c0,0.08-0.04,0.151-0.104,0.201
						c-0.502,0.422-1.104,0.704-1.92,0.704c-1.308,0-2.229-0.885-2.229-2.152c0-1.599,1.297-3.218,2.966-3.218
						c1.287,0,1.938,0.905,1.938,1.961c0,0.271-0.037,0.523-0.067,0.664s-0.131,0.231-0.302,0.231h-3.982
						c-0.01,0.11-0.02,0.231-0.02,0.342c0,1.036,0.69,1.709,1.696,1.709C107.448,214.424,107.95,214.233,108.434,213.84z
						 M108.947,211.93c0.021-0.091,0.04-0.231,0.04-0.422c0-0.825-0.449-1.539-1.445-1.539c-1.146,0-2.021,0.905-2.312,1.961
						H108.947z"/>
					<path d="M113.507,213.408c0-0.392-0.221-0.684-1.116-1.016c-0.975-0.362-1.438-0.704-1.438-1.377
						c0-0.815,0.741-1.488,1.897-1.488c0.634,0,1.327,0.281,1.669,0.543c0.081,0.06,0.131,0.13,0.131,0.231
						c0,0.131-0.101,0.231-0.229,0.231c-0.062,0-0.13-0.03-0.16-0.05c-0.433-0.302-0.915-0.503-1.458-0.503
						c-0.865,0-1.328,0.473-1.328,0.956c0,0.392,0.201,0.633,1.157,1.005c1.025,0.402,1.396,0.774,1.396,1.388
						c0,0.895-0.875,1.549-1.908,1.549c-0.717,0-1.397-0.231-2.001-0.724c-0.07-0.061-0.12-0.141-0.12-0.231
						c0-0.131,0.101-0.241,0.229-0.241c0.07,0,0.144,0.04,0.224,0.101c0.53,0.442,1.104,0.644,1.729,0.644
						C112.834,214.424,113.507,214.021,113.507,213.408z"/>
					<path d="M118.381,213.408c0-0.392-0.221-0.684-1.116-1.016c-0.975-0.362-1.438-0.704-1.438-1.377
						c0-0.815,0.741-1.488,1.897-1.488c0.634,0,1.327,0.281,1.669,0.543c0.081,0.06,0.131,0.13,0.131,0.231
						c0,0.131-0.101,0.231-0.229,0.231c-0.062,0-0.13-0.03-0.16-0.05c-0.433-0.302-0.915-0.503-1.458-0.503
						c-0.865,0-1.328,0.473-1.328,0.956c0,0.392,0.201,0.633,1.157,1.005c1.022,0.402,1.396,0.774,1.396,1.388
						c0,0.895-0.875,1.549-1.908,1.549c-0.717,0-1.397-0.231-2.001-0.724c-0.07-0.061-0.12-0.141-0.12-0.231
						c0-0.131,0.101-0.241,0.229-0.241c0.07,0,0.144,0.04,0.224,0.101c0.53,0.442,1.104,0.644,1.729,0.644
						C117.707,214.424,118.381,214.021,118.381,213.408z"/>
					<path d="M127.455,214.575c-0.04,0.151-0.13,0.231-0.271,0.231c-0.147,0-0.241-0.121-0.201-0.281l0.715-2.695
						c0.053-0.191,0.08-0.442,0.08-0.634c0-0.764-0.503-1.237-1.314-1.237c-0.875,0-1.84,0.794-2.145,1.911l-0.725,2.705
						c-0.04,0.151-0.13,0.231-0.271,0.231c-0.147,0-0.238-0.121-0.198-0.281l1.851-6.908c0.04-0.151,0.131-0.231,0.271-0.231
						c0.148,0,0.238,0.121,0.198,0.282l-0.781,2.926c0.503-0.604,1.073-1.076,1.938-1.076c1.019,0,1.68,0.644,1.68,1.629
						c0,0.221-0.051,0.483-0.107,0.724L127.455,214.575z"/>
					<path d="M129.433,212.614c0-1.619,1.408-3.097,3.047-3.097c1.357,0,2.282,0.955,2.282,2.272c0,1.669-1.458,3.097-3.046,3.097
						C130.358,214.886,129.433,213.931,129.433,212.614z M134.23,211.809c0-1.156-0.731-1.83-1.8-1.83
						c-1.298,0-2.464,1.247-2.464,2.615c0,1.156,0.734,1.83,1.8,1.83C133.013,214.424,134.23,213.227,134.23,211.809z"/>
					<path d="M139.365,214.524l0.181-0.714c-0.503,0.603-1.076,1.076-1.94,1.076c-1.016,0-1.68-0.644-1.68-1.629
						c0-0.221,0.05-0.483,0.11-0.724l0.714-2.705c0.041-0.15,0.131-0.231,0.271-0.231c0.151,0,0.241,0.121,0.201,0.281l-0.714,2.695
						c-0.05,0.191-0.08,0.442-0.08,0.633c0,0.764,0.503,1.237,1.317,1.237c0.875,0,1.84-0.794,2.142-1.911l0.724-2.705
						c0.041-0.15,0.134-0.231,0.271-0.231c0.151,0,0.241,0.121,0.201,0.281l-1.247,4.696c-0.04,0.151-0.13,0.231-0.271,0.231
						C139.414,214.806,139.323,214.685,139.365,214.524z"/>
					<path d="M144.971,213.408c0-0.392-0.221-0.684-1.116-1.016c-0.975-0.362-1.438-0.704-1.438-1.377
						c0-0.815,0.744-1.488,1.897-1.488c0.637,0,1.327,0.281,1.669,0.543c0.081,0.06,0.134,0.13,0.134,0.231
						c0,0.131-0.104,0.231-0.231,0.231c-0.06,0-0.13-0.03-0.16-0.05c-0.433-0.302-0.915-0.503-1.458-0.503
						c-0.865,0-1.328,0.473-1.328,0.956c0,0.392,0.201,0.633,1.157,1.005c1.025,0.402,1.397,0.774,1.397,1.388
						c0,0.895-0.875,1.549-1.911,1.549c-0.714,0-1.397-0.231-2.001-0.724c-0.07-0.061-0.12-0.141-0.12-0.231
						c0-0.131,0.101-0.241,0.229-0.241c0.07,0,0.144,0.04,0.224,0.101c0.53,0.442,1.104,0.644,1.729,0.644
						C144.297,214.424,144.971,214.021,144.971,213.408z"/>
					<path d="M150.731,213.84c0.05-0.04,0.12-0.07,0.19-0.07c0.121,0,0.211,0.091,0.211,0.211c0,0.08-0.04,0.151-0.104,0.201
						c-0.502,0.422-1.104,0.704-1.92,0.704c-1.308,0-2.229-0.885-2.229-2.152c0-1.599,1.297-3.218,2.966-3.218
						c1.287,0,1.941,0.905,1.941,1.961c0,0.271-0.04,0.523-0.07,0.664s-0.131,0.231-0.302,0.231h-3.982
						c-0.01,0.11-0.02,0.231-0.02,0.342c0,1.036,0.69,1.709,1.696,1.709C149.744,214.424,150.247,214.233,150.731,213.84z
						 M151.243,211.93c0.02-0.091,0.04-0.231,0.04-0.422c0-0.825-0.452-1.539-1.448-1.539c-1.146,0-2.021,0.905-2.312,1.961H151.243
						z"/>
				</g>
			</g>
			
				<line fill="none" stroke="#000000" stroke-width="0.25" stroke-miterlimit="10" x1="105.457" y1="218.371" x2="105.457" y2="240.572"/>
		</g>
		<g>
			<path fill="#B54147" d="M209.963,20.956V20.92c0-3.598,2.839-6.545,6.745-6.545c3.902,0,6.708,2.911,6.708,6.509v0.036
				c0,3.598-2.839,6.545-6.744,6.545C212.766,27.465,209.963,24.554,209.963,20.956z M220.505,20.956V20.92
				c0-2.17-1.591-3.978-3.833-3.978s-3.798,1.772-3.798,3.942v0.036c0,2.17,1.592,3.978,3.834,3.978S220.505,23.126,220.505,20.956z
				"/>
			<path fill="#B54147" d="M226.079,19.907h-0.108c-0.633,0-1.139-0.488-1.139-1.121c0-0.633,0.506-1.139,1.139-1.139h0.108v-0.615
				c0-1.067,0.271-1.844,0.775-2.351c0.506-0.506,1.247-0.759,2.227-0.759c0.434,0,0.812,0.018,1.121,0.072
				c0.47,0.072,0.938,0.488,0.938,1.103c0,0.615-0.507,1.139-1.121,1.139h-0.232c-0.636,0-0.994,0.326-0.994,1.049v0.379h1.19
				c0.636,0,1.142,0.488,1.142,1.121c0,0.633-0.506,1.121-1.142,1.121h-1.154v6.076c0,0.759-0.615,1.374-1.374,1.374
				c-0.763,0-1.375-0.615-1.375-1.374V19.907z M232.987,19.907h-0.105c-0.633,0-1.14-0.488-1.14-1.121
				c0-0.633,0.507-1.139,1.14-1.139h0.105v-0.615c0-1.067,0.271-1.844,0.778-2.351c0.506-0.506,1.247-0.759,2.224-0.759
				c0.437,0,0.812,0.018,1.121,0.072c0.473,0.072,0.94,0.488,0.94,1.103c0,0.615-0.507,1.139-1.121,1.139h-0.235
				c-0.633,0-0.991,0.326-0.991,1.049v0.379h1.19c0.633,0,1.142,0.488,1.142,1.121c0,0.633-0.509,1.121-1.142,1.121h-1.157v6.076
				c0,0.759-0.612,1.374-1.374,1.374c-0.76,0-1.375-0.615-1.375-1.374V19.907L232.987,19.907z M239.388,15.242
				c0-0.795,0.669-1.284,1.537-1.284s1.537,0.488,1.537,1.284v0.036c0,0.796-0.669,1.302-1.537,1.302s-1.537-0.506-1.537-1.302
				V15.242z M239.551,18.822c0-0.759,0.614-1.374,1.374-1.374c0.759,0,1.374,0.615,1.374,1.374v7.161
				c0,0.759-0.615,1.374-1.374,1.374c-0.76,0-1.374-0.615-1.374-1.374V18.822z"/>
			<path fill="#B54147" d="M244.422,22.457v-0.036c0-2.767,2.115-5.045,5.081-5.045c1.464,0,2.495,0.398,3.309,1.085
				c0.184,0.145,0.437,0.47,0.437,0.94c0,0.688-0.562,1.23-1.247,1.23c-0.362,0-0.633-0.145-0.796-0.271
				c-0.488-0.38-0.994-0.615-1.721-0.615c-1.374,0-2.351,1.211-2.351,2.64v0.036c0,1.482,0.958,2.676,2.459,2.676
				c0.724,0,1.284-0.253,1.809-0.669c0.146-0.108,0.416-0.253,0.741-0.253c0.65,0,1.157,0.524,1.157,1.175
				c0,0.361-0.163,0.651-0.398,0.868c-0.812,0.742-1.844,1.248-3.435,1.248C246.555,27.465,244.422,25.223,244.422,22.457z"/>
			<path fill="#B54147" d="M255.185,15.242c0-0.795,0.669-1.284,1.537-1.284s1.537,0.488,1.537,1.284v0.036
				c0,0.796-0.669,1.302-1.537,1.302s-1.537-0.506-1.537-1.302V15.242L255.185,15.242z M255.348,18.822
				c0-0.759,0.614-1.374,1.374-1.374s1.374,0.615,1.374,1.374v7.161c0,0.759-0.614,1.374-1.374,1.374s-1.374-0.615-1.374-1.374
				V18.822L255.348,18.822z"/>
			<path fill="#B54147" d="M260.684,18.822c0-0.759,0.615-1.374,1.374-1.374c0.76,0,1.374,0.615,1.374,1.374v0.109
				c0.633-0.814,1.447-1.555,2.839-1.555c2.08,0,3.291,1.374,3.291,3.598v5.009c0,0.759-0.614,1.374-1.374,1.374
				s-1.374-0.615-1.374-1.374v-4.141c0-1.302-0.615-1.971-1.664-1.971c-1.048,0-1.718,0.669-1.718,1.971v4.141
				c0,0.759-0.614,1.374-1.374,1.374c-0.759,0-1.374-0.615-1.374-1.374V18.822z"/>
			<path fill="#B54147" d="M271.374,24.464v-0.036c0-2.116,1.605-3.092,3.902-3.092c0.979,0,1.685,0.163,2.368,0.397V21.57
				c0-1.139-0.705-1.772-2.079-1.772c-0.759,0-1.374,0.108-1.896,0.271c-0.163,0.054-0.271,0.072-0.397,0.072
				c-0.633,0-1.14-0.488-1.14-1.121c0-0.488,0.308-0.904,0.741-1.067c0.868-0.326,1.809-0.506,3.093-0.506
				c1.5,0,2.585,0.396,3.271,1.085c0.726,0.723,1.052,1.79,1.052,3.092v4.412c0,0.741-0.6,1.32-1.341,1.32
				c-0.796,0-1.317-0.561-1.317-1.139V26.2c-0.669,0.741-1.591,1.229-2.933,1.229C272.874,27.429,271.374,26.38,271.374,24.464z
				 M277.685,23.831v-0.488c-0.471-0.217-1.085-0.361-1.755-0.361c-1.175,0-1.898,0.47-1.898,1.338v0.036
				c0,0.741,0.615,1.175,1.504,1.175C276.817,25.531,277.685,24.826,277.685,23.831z"/>
			<path fill="#B54147" d="M282.698,25.911c-0.308-0.217-0.521-0.615-0.521-1.049c0-0.723,0.579-1.284,1.302-1.284
				c0.362,0,0.615,0.126,0.796,0.253c0.958,0.705,2.007,1.139,3.236,1.139c1.14,0,1.826-0.452,1.826-1.193v-0.036
				c0-0.705-0.437-1.067-2.549-1.609c-2.553-0.651-4.195-1.356-4.195-3.87v-0.036c0-2.296,1.845-3.815,4.431-3.815
				c1.537,0,2.875,0.397,4.018,1.121c0.308,0.181,0.611,0.561,0.611,1.103c0,0.723-0.578,1.284-1.303,1.284
				c-0.271,0-0.488-0.072-0.705-0.199c-0.922-0.542-1.789-0.85-2.658-0.85c-1.062,0-1.626,0.488-1.626,1.103v0.036
				c0,0.832,0.542,1.104,2.73,1.664c2.564,0.669,4.014,1.591,4.014,3.797v0.037c0,2.513-1.916,3.923-4.646,3.923
				C285.789,27.429,284.108,26.923,282.698,25.911z"/>
			<path fill="#B54147" d="M294.6,24.5v-4.593h-0.091c-0.649,0-1.175-0.524-1.175-1.175s0.521-1.175,1.175-1.175h0.091v-1.211
				c0-0.759,0.614-1.374,1.375-1.374c0.76,0,1.373,0.615,1.373,1.374v1.211h1.212c0.65,0,1.176,0.524,1.176,1.175
				s-0.521,1.175-1.176,1.175h-1.212v4.141c0,0.633,0.271,0.94,0.888,0.94c0.09,0,0.271-0.019,0.324-0.019
				c0.614,0,1.14,0.506,1.14,1.139c0,0.488-0.323,0.886-0.705,1.031c-0.506,0.199-0.978,0.271-1.57,0.271
				C295.739,27.411,294.6,26.742,294.6,24.5z"/>
			<path fill="#B54147" d="M301.655,18.822c0-0.759,0.614-1.374,1.374-1.374s1.374,0.615,1.374,1.374v0.434
				c0.397-0.94,1.049-1.808,1.862-1.808c0.851,0,1.338,0.561,1.338,1.338c0,0.724-0.471,1.157-1.03,1.284
				c-1.393,0.325-2.17,1.392-2.17,3.345v2.568c0,0.759-0.614,1.374-1.374,1.374s-1.374-0.615-1.374-1.374V18.822z"/>
			<path fill="#B54147" d="M308.185,24.464v-0.036c0-2.116,1.608-3.092,3.905-3.092c0.978,0,1.682,0.163,2.365,0.397V21.57
				c0-1.139-0.702-1.772-2.076-1.772c-0.762,0-1.374,0.108-1.898,0.271c-0.162,0.054-0.271,0.072-0.396,0.072
				c-0.636,0-1.143-0.488-1.143-1.121c0-0.488,0.311-0.904,0.74-1.067c0.868-0.326,1.81-0.506,3.094-0.506
				c1.5,0,2.585,0.396,3.271,1.085c0.724,0.723,1.049,1.79,1.049,3.092v4.412c0,0.741-0.597,1.32-1.338,1.32
				c-0.796,0-1.319-0.561-1.319-1.139V26.2c-0.67,0.741-1.592,1.229-2.931,1.229C309.685,27.429,308.185,26.38,308.185,24.464z
				 M314.492,23.831v-0.488c-0.471-0.217-1.085-0.361-1.755-0.361c-1.175,0-1.896,0.47-1.896,1.338v0.036
				c0,0.741,0.612,1.175,1.501,1.175C313.627,25.531,314.492,24.826,314.492,23.831z"/>
			<path fill="#B54147" d="M319.83,24.5v-4.593h-0.091c-0.647,0-1.175-0.524-1.175-1.175s0.523-1.175,1.175-1.175h0.091v-1.211
				c0-0.759,0.614-1.374,1.374-1.374c0.763,0,1.374,0.615,1.374,1.374v1.211h1.215c0.647,0,1.175,0.524,1.175,1.175
				s-0.523,1.175-1.175,1.175h-1.215v4.141c0,0.633,0.271,0.94,0.89,0.94c0.09,0,0.271-0.019,0.325-0.019
				c0.611,0,1.139,0.506,1.139,1.139c0,0.488-0.324,0.886-0.705,1.031c-0.506,0.199-0.977,0.271-1.572,0.271
				C320.972,27.411,319.83,26.742,319.83,24.5z"/>
			<path fill="#B54147" d="M331.209,27.465c-2.911,0-5.062-2.043-5.062-5.008v-0.036c0-2.767,1.972-5.045,4.791-5.045
				c3.237,0,4.666,2.658,4.666,4.665c0,0.795-0.562,1.32-1.283,1.32h-5.439c0.271,1.248,1.139,1.899,2.365,1.899
				c0.763,0,1.396-0.235,1.953-0.651c0.197-0.145,0.38-0.217,0.669-0.217c0.614,0,1.065,0.47,1.065,1.085
				c0,0.362-0.161,0.633-0.36,0.813C333.723,27.014,332.616,27.465,331.209,27.465z M332.982,21.643
				c-0.163-1.229-0.888-2.061-2.045-2.061c-1.139,0-1.88,0.813-2.098,2.061H332.982z"/>
			<path fill="#B54147" d="M338.501,29.509c-0.474-0.181-0.777-0.561-0.777-1.067c0-0.615,0.507-1.121,1.121-1.121
				c0.182,0,0.325,0.036,0.451,0.09c0.796,0.362,1.646,0.579,2.677,0.579c1.881,0,2.768-0.904,2.768-2.64v-0.47
				c-0.812,0.977-1.7,1.573-3.165,1.573c-2.261,0-4.304-1.646-4.304-4.521v-0.036c0-2.893,2.079-4.521,4.304-4.521
				c1.501,0,2.39,0.633,3.129,1.446v-0.019c0-0.741,0.614-1.354,1.374-1.354c0.762,0,1.374,0.615,1.374,1.374v6.238
				c0,1.736-0.416,3.001-1.229,3.815c-0.903,0.904-2.297,1.302-4.177,1.302C340.761,30.178,339.64,29.961,338.501,29.509z
				 M344.74,21.933v-0.036c0-1.32-1.028-2.242-2.369-2.242c-1.338,0-2.352,0.922-2.352,2.242v0.036c0,1.338,1.014,2.242,2.352,2.242
				C343.709,24.175,344.74,23.252,344.74,21.933z"/>
			<path fill="#B54147" d="M349.878,15.242c0-0.795,0.669-1.284,1.534-1.284c0.868,0,1.537,0.488,1.537,1.284v0.036
				c0,0.796-0.669,1.302-1.537,1.302c-0.865,0-1.534-0.506-1.534-1.302V15.242z M350.038,18.822c0-0.759,0.614-1.374,1.374-1.374
				c0.763,0,1.374,0.615,1.374,1.374v7.161c0,0.759-0.611,1.374-1.374,1.374c-0.76,0-1.374-0.615-1.374-1.374V18.822z"/>
			<path fill="#B54147" d="M354.799,24.464v-0.036c0-2.116,1.605-3.092,3.902-3.092c0.979,0,1.685,0.163,2.368,0.397V21.57
				c0-1.139-0.705-1.772-2.079-1.772c-0.759,0-1.374,0.108-1.896,0.271c-0.163,0.054-0.271,0.072-0.396,0.072
				c-0.633,0-1.141-0.488-1.141-1.121c0-0.488,0.309-0.904,0.741-1.067c0.867-0.326,1.81-0.506,3.093-0.506
				c1.5,0,2.585,0.396,3.271,1.085c0.726,0.723,1.052,1.79,1.052,3.092v4.412c0,0.741-0.6,1.32-1.341,1.32
				c-0.796,0-1.317-0.561-1.317-1.139V26.2c-0.669,0.741-1.591,1.229-2.933,1.229C356.299,27.429,354.799,26.38,354.799,24.464z
				 M361.11,23.831v-0.488c-0.472-0.217-1.085-0.361-1.755-0.361c-1.176,0-1.898,0.47-1.898,1.338v0.036
				c0,0.741,0.615,1.175,1.501,1.175C360.24,25.531,361.11,24.826,361.11,23.831z"/>
		</g>
		<g>
			<path d="M244.25,31.594c0.044-0.165,0.143-0.252,0.296-0.252c0.164,0,0.263,0.131,0.219,0.307l-0.405,1.523h1.646
				c0.143,0,0.252,0.109,0.252,0.252c0,0.131-0.12,0.241-0.252,0.241h-1.775l-0.953,3.561c-0.029,0.142-0.055,0.339-0.055,0.471
				c0,0.46,0.353,0.668,0.909,0.668c0.143,0,0.308-0.022,0.449-0.065c0.22-0.066,0.34,0.033,0.34,0.197
				c0,0.12-0.076,0.197-0.219,0.252c-0.188,0.065-0.416,0.109-0.69,0.109c-0.745,0-1.337-0.34-1.337-1.106
				c0-0.175,0.033-0.395,0.063-0.537l0.953-3.549h-0.523c-0.146,0-0.252-0.11-0.252-0.252c0-0.131,0.121-0.241,0.252-0.241h0.656
				L244.25,31.594z"/>
			<path d="M251.165,38.551c-0.044,0.164-0.146,0.252-0.296,0.252c-0.164,0-0.266-0.132-0.222-0.307l0.778-2.937
				c0.055-0.208,0.087-0.482,0.087-0.69c0-0.833-0.548-1.348-1.435-1.348c-0.953,0-2.006,0.865-2.334,2.082l-0.789,2.947
				c-0.044,0.164-0.146,0.252-0.296,0.252c-0.164,0-0.266-0.132-0.222-0.307l2.019-7.527c0.044-0.165,0.143-0.252,0.296-0.252
				c0.164,0,0.263,0.131,0.22,0.307l-0.854,3.188c0.548-0.657,1.173-1.172,2.112-1.172c1.106,0,1.829,0.701,1.829,1.774
				c0,0.241-0.055,0.526-0.12,0.789L251.165,38.551z"/>
			<path d="M257.514,37.751c0.055-0.044,0.131-0.077,0.208-0.077c0.132,0,0.229,0.099,0.229,0.23c0,0.087-0.043,0.164-0.109,0.219
				c-0.548,0.46-1.205,0.767-2.092,0.767c-1.425,0-2.436-0.964-2.436-2.344c0-1.742,1.413-3.506,3.231-3.506
				c1.402,0,2.115,0.986,2.115,2.136c0,0.296-0.044,0.57-0.077,0.723c-0.032,0.153-0.146,0.252-0.328,0.252h-4.339
				c-0.013,0.121-0.021,0.252-0.021,0.373c0,1.128,0.756,1.862,1.854,1.862C256.44,38.387,256.988,38.179,257.514,37.751z
				 M258.073,35.67c0.021-0.099,0.047-0.252,0.047-0.46c0-0.898-0.493-1.676-1.578-1.676c-1.249,0-2.202,0.986-2.521,2.137
				L258.073,35.67L258.073,35.67z"/>
			<path d="M263.644,37.335l-0.329,1.216c-0.044,0.164-0.143,0.252-0.296,0.252c-0.164,0-0.263-0.132-0.219-0.307l2.016-7.527
				c0.044-0.165,0.146-0.252,0.296-0.252c0.164,0,0.266,0.131,0.223,0.307l-0.877,3.243c0.559-0.668,1.322-1.227,2.319-1.227
				c1.293,0,2.246,0.975,2.246,2.355c0,1.983-1.486,3.506-3.152,3.506C264.618,38.902,263.929,38.135,263.644,37.335z
				 M268.443,35.461c0-1.15-0.713-1.917-1.729-1.917c-1.395,0-2.794,1.413-2.794,2.903c0,1.074,0.775,1.95,1.929,1.95
				C267.358,38.398,268.443,37.006,268.443,35.461z"/>
			<path d="M274.068,38.497l0.197-0.778c-0.548,0.658-1.173,1.172-2.114,1.172c-1.104,0-1.83-0.701-1.83-1.775
				c0-0.241,0.058-0.526,0.12-0.789l0.778-2.947c0.044-0.164,0.143-0.252,0.296-0.252c0.164,0,0.263,0.131,0.219,0.307l-0.774,2.937
				c-0.058,0.208-0.088,0.482-0.088,0.69c0,0.833,0.548,1.348,1.436,1.348c0.953,0,2.005-0.866,2.333-2.082l0.789-2.947
				c0.044-0.164,0.143-0.252,0.296-0.252c0.164,0,0.263,0.131,0.219,0.307l-1.355,5.117c-0.044,0.164-0.146,0.252-0.296,0.252
				C274.122,38.803,274.024,38.671,274.068,38.497z"/>
			<path d="M280.186,37.28c0-0.427-0.241-0.745-1.217-1.106c-1.062-0.395-1.566-0.767-1.566-1.501c0-0.888,0.812-1.622,2.07-1.622
				c0.69,0,1.446,0.307,1.819,0.592c0.087,0.065,0.143,0.142,0.143,0.252c0,0.142-0.107,0.252-0.252,0.252
				c-0.063,0-0.143-0.033-0.176-0.055c-0.471-0.329-0.997-0.548-1.589-0.548c-0.941,0-1.446,0.515-1.446,1.041
				c0,0.427,0.22,0.69,1.261,1.096c1.117,0.438,1.522,0.844,1.522,1.512c0,0.975-0.953,1.688-2.082,1.688
				c-0.777,0-1.522-0.252-2.18-0.789c-0.077-0.065-0.135-0.153-0.135-0.252c0-0.142,0.109-0.263,0.252-0.263
				c0.077,0,0.153,0.043,0.241,0.109c0.581,0.482,1.205,0.701,1.885,0.701C279.451,38.387,280.186,37.949,280.186,37.28z"/>
			<path d="M282.664,38.551c-0.044,0.164-0.146,0.252-0.296,0.252c-0.164,0-0.266-0.132-0.222-0.307l1.369-5.117
				c0.044-0.164,0.146-0.252,0.296-0.252c0.164,0,0.266,0.131,0.222,0.307L282.664,38.551z M284.253,31.77
				c-0.197,0-0.329-0.131-0.285-0.307l0.076-0.285c0.044-0.164,0.187-0.252,0.373-0.252c0.194,0,0.328,0.131,0.284,0.307
				l-0.076,0.285C284.581,31.682,284.439,31.77,284.253,31.77z"/>
			<path d="M286.688,33.435l-0.194,0.778c0.548-0.657,1.173-1.172,2.112-1.172c1.105,0,1.828,0.701,1.828,1.774
				c0,0.241-0.055,0.526-0.119,0.789l-0.775,2.947c-0.044,0.164-0.146,0.252-0.296,0.252c-0.164,0-0.267-0.132-0.222-0.307
				l0.777-2.937c0.055-0.208,0.088-0.482,0.088-0.69c0-0.833-0.549-1.348-1.436-1.348c-0.953,0-2.008,0.865-2.334,2.082
				l-0.789,2.947c-0.044,0.164-0.146,0.252-0.296,0.252c-0.164,0-0.266-0.132-0.222-0.307l1.358-5.117
				c0.044-0.164,0.143-0.252,0.296-0.252C286.632,33.128,286.73,33.259,286.688,33.435z"/>
			<path d="M295.906,37.751c0.058-0.044,0.134-0.077,0.208-0.077c0.134,0,0.229,0.099,0.229,0.23c0,0.087-0.043,0.164-0.108,0.219
				c-0.549,0.46-1.205,0.767-2.094,0.767c-1.424,0-2.432-0.964-2.432-2.344c0-1.742,1.413-3.506,3.229-3.506
				c1.401,0,2.115,0.986,2.115,2.136c0,0.296-0.045,0.57-0.078,0.723s-0.143,0.252-0.328,0.252h-4.338
				c-0.012,0.121-0.021,0.252-0.021,0.373c0,1.128,0.756,1.862,1.852,1.862C294.831,38.387,295.379,38.179,295.906,37.751z
				 M296.464,35.67c0.021-0.099,0.044-0.252,0.044-0.46c0-0.898-0.492-1.676-1.578-1.676c-1.248,0-2.201,0.986-2.52,2.137
				L296.464,35.67L296.464,35.67z"/>
			<path d="M301.442,37.28c0-0.427-0.241-0.745-1.218-1.106c-1.062-0.395-1.565-0.767-1.565-1.501c0-0.888,0.812-1.622,2.069-1.622
				c0.69,0,1.446,0.307,1.819,0.592c0.087,0.065,0.144,0.142,0.144,0.252c0,0.142-0.11,0.252-0.252,0.252
				c-0.066,0-0.144-0.033-0.177-0.055c-0.474-0.329-0.997-0.548-1.589-0.548c-0.94,0-1.446,0.515-1.446,1.041
				c0,0.427,0.221,0.69,1.262,1.096c1.116,0.438,1.521,0.844,1.521,1.512c0,0.975-0.953,1.688-2.082,1.688
				c-0.776,0-1.521-0.252-2.18-0.789c-0.077-0.065-0.132-0.153-0.132-0.252c0-0.142,0.105-0.263,0.249-0.263
				c0.077,0,0.153,0.043,0.241,0.109c0.58,0.482,1.205,0.701,1.885,0.701C300.704,38.387,301.442,37.949,301.442,37.28z"/>
			<path d="M306.759,37.28c0-0.427-0.241-0.745-1.218-1.106c-1.062-0.395-1.565-0.767-1.565-1.501c0-0.888,0.812-1.622,2.07-1.622
				c0.688,0,1.443,0.307,1.816,0.592c0.088,0.065,0.146,0.142,0.146,0.252c0,0.142-0.109,0.252-0.252,0.252
				c-0.065,0-0.146-0.033-0.179-0.055c-0.471-0.329-0.997-0.548-1.589-0.548c-0.938,0-1.443,0.515-1.443,1.041
				c0,0.427,0.22,0.69,1.261,1.096c1.117,0.438,1.521,0.844,1.521,1.512c0,0.975-0.953,1.688-2.082,1.688
				c-0.774,0-1.521-0.252-2.18-0.789c-0.077-0.065-0.133-0.153-0.133-0.252c0-0.142,0.108-0.263,0.253-0.263
				c0.076,0,0.152,0.043,0.24,0.109c0.581,0.482,1.205,0.701,1.885,0.701C306.025,38.387,306.759,37.949,306.759,37.28z"/>
			<path d="M316.656,38.551c-0.044,0.164-0.144,0.252-0.296,0.252c-0.164,0-0.264-0.132-0.22-0.307l0.778-2.937
				c0.055-0.208,0.087-0.482,0.087-0.69c0-0.833-0.548-1.348-1.438-1.348c-0.953,0-2.005,0.865-2.334,2.082l-0.789,2.947
				c-0.044,0.164-0.144,0.252-0.296,0.252c-0.164,0-0.264-0.132-0.22-0.307l2.017-7.527c0.044-0.165,0.146-0.252,0.296-0.252
				c0.164,0,0.266,0.131,0.223,0.307l-0.854,3.188c0.548-0.657,1.173-1.172,2.114-1.172c1.104,0,1.829,0.701,1.829,1.774
				c0,0.241-0.058,0.526-0.12,0.789L316.656,38.551z"/>
			<path d="M322.709,38.497l0.194-0.778c-0.548,0.658-1.173,1.172-2.112,1.172c-1.105,0-1.829-0.701-1.829-1.775
				c0-0.241,0.055-0.526,0.117-0.789l0.778-2.947c0.044-0.164,0.146-0.252,0.296-0.252c0.164,0,0.266,0.131,0.222,0.307
				l-0.777,2.937c-0.055,0.208-0.088,0.482-0.088,0.69c0,0.833,0.548,1.348,1.437,1.348c0.953,0,2.005-0.866,2.333-2.082
				l0.789-2.947c0.044-0.164,0.146-0.252,0.296-0.252c0.164,0,0.266,0.131,0.221,0.307l-1.357,5.117
				c-0.044,0.164-0.145,0.252-0.296,0.252C322.764,38.803,322.662,38.671,322.709,38.497z"/>
			<path d="M326.132,37.335l-0.329,1.216c-0.044,0.164-0.146,0.252-0.296,0.252c-0.164,0-0.266-0.132-0.222-0.307l2.019-7.527
				c0.044-0.165,0.144-0.252,0.296-0.252c0.164,0,0.264,0.131,0.221,0.307l-0.877,3.243c0.562-0.668,1.324-1.227,2.321-1.227
				c1.293,0,2.246,0.975,2.246,2.355c0,1.983-1.489,3.506-3.155,3.506C327.107,38.902,326.414,38.135,326.132,37.335z
				 M330.931,35.461c0-1.15-0.713-1.917-1.73-1.917c-1.393,0-2.794,1.413-2.794,2.903c0,1.074,0.777,1.95,1.932,1.95
				C329.846,38.398,330.931,37.006,330.931,35.461z"/>
		</g>
		<line fill="none" stroke="#000000" stroke-width="0.25" stroke-miterlimit="10" x1="286.93" y1="42.69" x2="286.93" y2="53.308"/>
		<g>
			<path fill="#4D4D4D" d="M290.055,262.395c0.266,0,0.641-0.061,0.834-0.121c-1.779,0-2.877-3.385-5.01-3.689
				c0.508-0.295,1.057-0.447,1.676-0.447c3.08,0,3.396,3.385,4.615,3.385c0.578,0,1.057-0.58,1.057-1.453
				c0-0.59-0.295-1.22-0.682-1.515l1.424-0.396c0.406,0.335,0.822,1.026,0.822,1.85c0,0.579-0.145,1.239-0.631,1.89
				c-0.926,1.221-3.051,2.176-6.008,2.176c-3.17,0-5.061-1.067-5.061-3.11c0-0.63,0.284-1.169,0.64-1.453
				c-0.508-0.427-1.006-0.6-1.768-0.6c-1.179,0-2.013,0.793-2.013,1.819s0.648,1.596,1.596,1.596c0.183,0,0.354-0.01,0.569-0.051
				l0.079,1.331c-0.265,0.062-0.52,0.071-0.729,0.071c-1.84,0-3.069-1.027-3.069-2.785c0-1.85,1.517-3.303,3.729-3.303
				C286.326,257.588,287.383,262.395,290.055,262.395z"/>
		</g>
		<g>
			<path fill="#4D4D4D" d="M332.76,326.342c0.267,0,0.642-0.061,0.834-0.121c-1.778,0-2.877-3.385-5.01-3.688
				c0.508-0.296,1.057-0.447,1.676-0.447c3.08,0,3.396,3.387,4.615,3.387c0.576,0,1.057-0.58,1.057-1.453
				c0-0.592-0.295-1.222-0.682-1.517l1.424-0.396c0.404,0.336,0.82,1.024,0.82,1.851c0,0.579-0.143,1.239-0.631,1.89
				c-0.924,1.223-3.049,2.176-6.006,2.176c-3.17,0-5.062-1.064-5.062-3.107c0-0.63,0.283-1.169,0.642-1.453
				c-0.509-0.427-1.007-0.6-1.769-0.6c-1.182,0-2.016,0.793-2.016,1.816c0,1.026,0.649,1.596,1.597,1.596
				c0.185,0,0.354-0.01,0.569-0.051l0.08,1.332c-0.265,0.062-0.519,0.07-0.729,0.07c-1.842,0-3.07-1.027-3.07-2.785
				c0-1.85,1.517-3.303,3.729-3.303C329.031,321.535,330.088,326.342,332.76,326.342z"/>
		</g>
		<g>
			<path fill="#4D4D4D" d="M245.074,326.342c0.266,0,0.641-0.061,0.834-0.121c-1.779,0-2.879-3.385-5.012-3.688
				c0.508-0.296,1.059-0.447,1.678-0.447c3.078,0,3.395,3.387,4.613,3.387c0.578,0,1.059-0.58,1.059-1.453
				c0-0.592-0.295-1.222-0.684-1.517l1.424-0.396c0.406,0.336,0.822,1.024,0.822,1.851c0,0.579-0.143,1.239-0.631,1.89
				c-0.924,1.223-3.049,2.176-6.006,2.176c-3.17,0-5.062-1.064-5.062-3.107c0-0.63,0.285-1.169,0.643-1.453
				c-0.508-0.427-1.006-0.6-1.77-0.6c-1.18,0-2.014,0.793-2.014,1.816c0,1.026,0.65,1.596,1.596,1.596
				c0.186,0,0.355-0.01,0.57-0.051l0.08,1.332c-0.264,0.062-0.519,0.07-0.73,0.07c-1.84,0-3.068-1.027-3.068-2.785
				c0-1.85,1.516-3.303,3.729-3.303C241.346,321.535,242.403,326.342,245.074,326.342z"/>
		</g>
		<g>
			<path d="M422.989,206.986c0.04-0.151,0.131-0.231,0.271-0.231c0.148,0,0.241,0.121,0.201,0.282l-0.372,1.397h1.508
				c0.131,0,0.229,0.101,0.229,0.231c0,0.121-0.108,0.221-0.229,0.221h-1.629l-0.875,3.268c-0.03,0.131-0.05,0.312-0.05,0.432
				c0,0.422,0.319,0.614,0.834,0.614c0.131,0,0.28-0.021,0.411-0.061c0.201-0.061,0.312,0.03,0.312,0.181
				c0,0.11-0.07,0.181-0.201,0.231c-0.171,0.061-0.382,0.101-0.634,0.101c-0.684,0-1.229-0.312-1.229-1.016
				c0-0.161,0.03-0.362,0.062-0.493l0.875-3.258h-0.483c-0.131,0-0.229-0.101-0.229-0.231c0-0.121,0.11-0.221,0.229-0.221h0.604
				L422.989,206.986z"/>
			<path d="M429.329,213.372c-0.04,0.151-0.13,0.231-0.271,0.231c-0.15,0-0.241-0.121-0.2-0.281l0.714-2.695
				c0.05-0.191,0.08-0.442,0.08-0.634c0-0.764-0.503-1.237-1.315-1.237c-0.875,0-1.842,0.794-2.144,1.911l-0.725,2.705
				c-0.04,0.151-0.13,0.231-0.271,0.231c-0.148,0-0.241-0.121-0.2-0.281l1.852-6.908c0.04-0.151,0.131-0.231,0.271-0.231
				c0.151,0,0.241,0.121,0.201,0.282l-0.784,2.926c0.503-0.604,1.076-1.076,1.94-1.076c1.016,0,1.68,0.644,1.68,1.629
				c0,0.221-0.051,0.483-0.108,0.724L429.329,213.372z"/>
			<path d="M435.15,212.637c0.05-0.04,0.12-0.07,0.19-0.07c0.121,0,0.211,0.091,0.211,0.211c0,0.08-0.04,0.151-0.103,0.201
				c-0.502,0.422-1.104,0.704-1.92,0.704c-1.308,0-2.23-0.885-2.23-2.152c0-1.599,1.297-3.218,2.966-3.218
				c1.287,0,1.939,0.905,1.939,1.961c0,0.271-0.04,0.523-0.068,0.664c-0.03,0.141-0.131,0.231-0.304,0.231h-3.98
				c-0.01,0.11-0.021,0.231-0.021,0.342c0,1.036,0.693,1.709,1.699,1.709C434.162,213.221,434.665,213.03,435.15,212.637z
				 M435.661,210.727c0.021-0.091,0.04-0.231,0.04-0.422c0-0.825-0.45-1.539-1.446-1.539c-1.146,0-2.021,0.905-2.312,1.961H435.661z
				"/>
			<path d="M443.238,212.205c0-0.392-0.221-0.684-1.116-1.016c-0.975-0.362-1.438-0.704-1.438-1.377c0-0.815,0.744-1.488,1.9-1.488
				c0.634,0,1.325,0.281,1.669,0.543c0.081,0.06,0.131,0.13,0.131,0.231c0,0.131-0.103,0.231-0.231,0.231
				c-0.06,0-0.13-0.03-0.16-0.05c-0.433-0.302-0.915-0.503-1.458-0.503c-0.863,0-1.326,0.473-1.326,0.956
				c0,0.392,0.199,0.633,1.155,1.005c1.025,0.402,1.397,0.774,1.397,1.388c0,0.895-0.875,1.549-1.911,1.549
				c-0.714,0-1.397-0.231-2.001-0.724c-0.07-0.061-0.12-0.141-0.12-0.231c0-0.131,0.101-0.241,0.231-0.241
				c0.068,0,0.141,0.04,0.221,0.101c0.533,0.442,1.104,0.644,1.729,0.644C442.564,213.221,443.238,212.818,443.238,212.205z"/>
			<path d="M446.836,206.986c0.04-0.151,0.131-0.231,0.271-0.231c0.15,0,0.241,0.121,0.201,0.282l-0.372,1.397h1.508
				c0.131,0,0.231,0.101,0.231,0.231c0,0.121-0.11,0.221-0.231,0.221h-1.629l-0.875,3.268c-0.03,0.131-0.05,0.312-0.05,0.432
				c0,0.422,0.321,0.614,0.834,0.614c0.131,0,0.282-0.021,0.413-0.061c0.201-0.061,0.312,0.03,0.312,0.181
				c0,0.11-0.068,0.181-0.201,0.231c-0.171,0.061-0.382,0.101-0.634,0.101c-0.684,0-1.227-0.312-1.227-1.016
				c0-0.161,0.03-0.362,0.061-0.493l0.875-3.258h-0.481c-0.131,0-0.231-0.101-0.231-0.231c0-0.121,0.111-0.221,0.231-0.221h0.604
				L446.836,206.986z"/>
			<path d="M452.323,213.321l0.171-0.644c-0.49,0.583-1.166,1.005-2.062,1.005c-0.854,0-1.679-0.482-1.679-1.438
				c0-1.136,0.965-1.86,2.312-1.86c0.734,0,1.458,0.151,1.971,0.292l0.04-0.141c0.041-0.151,0.071-0.372,0.071-0.513
				c0-0.774-0.543-1.207-1.549-1.207c-0.543,0-0.966,0.101-1.297,0.211c-0.041,0.01-0.091,0.02-0.131,0.02
				c-0.121,0-0.201-0.09-0.201-0.221c0-0.101,0.061-0.191,0.188-0.231c0.483-0.161,0.928-0.242,1.479-0.242
				c1.257,0,1.991,0.614,1.991,1.599c0,0.191-0.04,0.442-0.103,0.674l-0.732,2.745c-0.04,0.151-0.133,0.231-0.271,0.231
				C452.372,213.603,452.281,213.482,452.323,213.321z M452.816,211.521l0.12-0.452c-0.522-0.131-1.188-0.241-1.94-0.241
				c-1.023,0-1.72,0.563-1.72,1.357c0,0.633,0.483,1.045,1.247,1.045C451.489,213.23,452.532,212.557,452.816,211.521z"/>
			<path d="M455.99,209.892c0.623-0.925,1.561-1.539,2.343-1.539c0.173,0,0.264,0.101,0.264,0.251c0,0.171-0.121,0.282-0.362,0.302
				c-1.096,0.101-2.242,0.985-2.664,2.554l-0.514,1.911c-0.04,0.151-0.13,0.231-0.271,0.231c-0.148,0-0.239-0.121-0.2-0.281
				l1.246-4.696c0.04-0.15,0.133-0.231,0.271-0.231c0.151,0,0.241,0.121,0.201,0.281L455.99,209.892z"/>
			<path d="M460.531,206.986c0.04-0.151,0.131-0.231,0.271-0.231c0.148,0,0.241,0.121,0.201,0.282l-0.372,1.397h1.508
				c0.131,0,0.229,0.101,0.229,0.231c0,0.121-0.108,0.221-0.229,0.221h-1.629l-0.875,3.268c-0.03,0.131-0.05,0.312-0.05,0.432
				c0,0.422,0.319,0.614,0.834,0.614c0.131,0,0.28-0.021,0.412-0.061c0.2-0.061,0.312,0.03,0.312,0.181
				c0,0.11-0.07,0.181-0.201,0.231c-0.171,0.061-0.382,0.101-0.634,0.101c-0.684,0-1.227-0.312-1.227-1.016
				c0-0.161,0.028-0.362,0.061-0.493l0.875-3.258h-0.483c-0.131,0-0.229-0.101-0.229-0.231c0-0.121,0.111-0.221,0.229-0.221h0.604
				L460.531,206.986z"/>
			<path d="M466.303,213.321l0.181-0.714c-0.503,0.603-1.076,1.076-1.938,1.076c-1.018,0-1.682-0.644-1.682-1.629
				c0-0.221,0.05-0.483,0.11-0.724l0.714-2.705c0.041-0.15,0.131-0.231,0.271-0.231c0.149,0,0.239,0.121,0.199,0.281l-0.714,2.695
				c-0.05,0.191-0.08,0.442-0.08,0.633c0,0.764,0.503,1.237,1.317,1.237c0.875,0,1.84-0.794,2.142-1.911l0.726-2.705
				c0.041-0.15,0.131-0.231,0.271-0.231c0.151,0,0.241,0.121,0.201,0.281l-1.247,4.696c-0.04,0.151-0.13,0.231-0.271,0.231
				C466.353,213.603,466.262,213.482,466.303,213.321z"/>
			<path d="M470.381,208.675l-0.201,0.765c0.513-0.614,1.217-1.126,2.132-1.126c1.187,0,2.062,0.895,2.062,2.162
				c0,1.82-1.365,3.218-2.896,3.218c-1.146,0-1.78-0.704-2.042-1.438l-0.733,2.725c-0.04,0.151-0.131,0.231-0.271,0.231
				c-0.151,0-0.241-0.121-0.201-0.281l1.679-6.305c0.041-0.15,0.133-0.231,0.271-0.231
				C470.329,208.394,470.421,208.515,470.381,208.675z M469.688,211.441c0,0.985,0.714,1.79,1.77,1.79
				c1.39,0,2.385-1.277,2.385-2.695c0-1.056-0.653-1.76-1.589-1.76C470.975,208.776,469.688,210.073,469.688,211.441z"/>
			<path d="M482.579,213.372c-0.04,0.151-0.13,0.231-0.271,0.231c-0.15,0-0.241-0.121-0.2-0.281l0.714-2.695
				c0.05-0.191,0.08-0.442,0.08-0.634c0-0.764-0.503-1.237-1.315-1.237c-0.875,0-1.842,0.794-2.144,1.911l-0.725,2.705
				c-0.04,0.151-0.13,0.231-0.271,0.231c-0.148,0-0.241-0.121-0.2-0.281l1.852-6.908c0.04-0.151,0.131-0.231,0.271-0.231
				c0.151,0,0.241,0.121,0.201,0.282l-0.784,2.926c0.503-0.604,1.076-1.076,1.94-1.076c1.016,0,1.68,0.644,1.68,1.629
				c0,0.221-0.051,0.483-0.108,0.724L482.579,213.372z"/>
			<path d="M484.559,211.411c0-1.619,1.408-3.097,3.047-3.097c1.357,0,2.282,0.955,2.282,2.272c0,1.669-1.458,3.097-3.046,3.097
				C485.483,213.683,484.559,212.728,484.559,211.411z M489.355,210.606c0-1.156-0.734-1.83-1.8-1.83
				c-1.298,0-2.464,1.247-2.464,2.615c0,1.156,0.732,1.83,1.8,1.83C488.139,213.221,489.355,212.024,489.355,210.606z"/>
			<path d="M494.49,213.321l0.183-0.714c-0.503,0.603-1.076,1.076-1.94,1.076c-1.016,0-1.68-0.644-1.68-1.629
				c0-0.221,0.05-0.483,0.108-0.724l0.715-2.705c0.04-0.15,0.132-0.231,0.271-0.231c0.151,0,0.241,0.121,0.201,0.281l-0.714,2.695
				c-0.052,0.191-0.08,0.442-0.08,0.633c0,0.764,0.503,1.237,1.315,1.237c0.875,0,1.841-0.794,2.144-1.911l0.724-2.705
				c0.041-0.15,0.131-0.231,0.271-0.231c0.149,0,0.239,0.121,0.2,0.281l-1.246,4.696c-0.04,0.151-0.132,0.231-0.271,0.231
				C494.538,213.603,494.448,213.482,494.49,213.321z"/>
			<path d="M500.097,212.205c0-0.392-0.222-0.684-1.116-1.016c-0.975-0.362-1.438-0.704-1.438-1.377
				c0-0.815,0.742-1.488,1.898-1.488c0.634,0,1.327,0.281,1.669,0.543c0.081,0.06,0.131,0.13,0.131,0.231
				c0,0.131-0.101,0.231-0.229,0.231c-0.062,0-0.13-0.03-0.16-0.05c-0.433-0.302-0.915-0.503-1.458-0.503
				c-0.865,0-1.328,0.473-1.328,0.956c0,0.392,0.201,0.633,1.157,1.005c1.023,0.402,1.396,0.774,1.396,1.388
				c0,0.895-0.875,1.549-1.909,1.549c-0.716,0-1.397-0.231-2.003-0.724c-0.068-0.061-0.118-0.141-0.118-0.231
				c0-0.131,0.101-0.241,0.229-0.241c0.07,0,0.143,0.04,0.221,0.101c0.533,0.442,1.106,0.644,1.729,0.644
				C499.424,213.221,500.097,212.818,500.097,212.205z"/>
			<path d="M505.856,212.637c0.05-0.04,0.12-0.07,0.19-0.07c0.119,0,0.211,0.091,0.211,0.211c0,0.08-0.04,0.151-0.103,0.201
				c-0.502,0.422-1.104,0.704-1.92,0.704c-1.308,0-2.23-0.885-2.23-2.152c0-1.599,1.297-3.218,2.966-3.218
				c1.287,0,1.939,0.905,1.939,1.961c0,0.271-0.04,0.523-0.068,0.664c-0.03,0.141-0.132,0.231-0.304,0.231h-3.98
				c-0.01,0.11-0.021,0.231-0.021,0.342c0,1.036,0.693,1.709,1.699,1.709C504.868,213.221,505.371,213.03,505.856,212.637z
				 M506.367,210.727c0.021-0.091,0.04-0.231,0.04-0.422c0-0.825-0.452-1.539-1.446-1.539c-1.146,0-2.021,0.905-2.312,1.961H506.367
				z"/>
		</g>
	</g>
	<g id="flussi_x5F_2">
		<g>
			<path fill="none" stroke="#FFFFFF" stroke-miterlimit="10" d="M203,204.486v-53.219c0-5.5,4.5-10,10-10h39.334"/>
		</g>
		<g>
			<path fill="none" stroke="#FFFFFF" stroke-miterlimit="10" d="M239.5,277.986H213c-5.5,0-10-4.5-10-10v-63.5"/>
		</g>
		<g>
			<path fill="none" stroke="#FFFFFF" stroke-miterlimit="10" d="M373,210.486v-59.219c0-5.5-4.5-10-10-10h-40.619"/>
		</g>
		<g>
			<path fill="none" stroke="#FFFFFF" stroke-miterlimit="10" d="M203,165.601v-53.219c0-5.5,4.5-10,10-10h16.412"/>
		</g>
		<g>
			<path fill="none" stroke="#FFFFFF" stroke-miterlimit="10" d="M373,171.601v-59.219c0-5.5-4.5-10-10-10h-19.594"/>
		</g>
		<g>
			<path fill="none" stroke="#FFFFFF" stroke-miterlimit="10" d="M348.5,277.986H363c5.5,0,10-4.5,10-10v-57.5"/>
		</g>
		<g>
			<path fill="none" stroke="#FFFFFF" stroke-miterlimit="10" d="M441.5,292.986H339c-5.5,0-10,4.162-10,9.25c0,5.087,0,9.25,0,9.25
				"/>
		</g>
		<g>
			<path fill="none" stroke="#FFFFFF" stroke-miterlimit="10" d="M467,311.486v21.5c0,5.5-4.5,10-10,10h-93.5"/>
		</g>
		<g>
			<path fill="none" stroke="#FFFFFF" stroke-miterlimit="10" d="M131.5,292.986H233.11c5.5,0,10,4.162,10,9.25
				c0,5.087,0,9.25,0,9.25"/>
		</g>
		<g>
			<path fill="none" stroke="#FFFFFF" stroke-miterlimit="10" d="M107,311.486v21.5c0,5.5,4.5,10,10,10h89.5"/>
		</g>
		<circle fill="none" stroke="#FFFFFF" stroke-miterlimit="10" cx="229.412" cy="102.382" r="1.936"/>
		<circle fill="none" stroke="#FFFFFF" stroke-miterlimit="10" cx="252.333" cy="141.268" r="1.936"/>
		<circle fill="none" stroke="#FFFFFF" stroke-miterlimit="10" cx="348.5" cy="277.986" r="1.935"/>
		<circle fill="none" stroke="#FFFFFF" stroke-miterlimit="10" cx="441.5" cy="292.986" r="1.935"/>
		<circle fill="none" stroke="#FFFFFF" stroke-miterlimit="10" cx="363.5" cy="342.986" r="1.935"/>
		<circle fill="none" stroke="#FFFFFF" stroke-miterlimit="10" cx="206.5" cy="342.986" r="1.936"/>
		<circle fill="none" stroke="#FFFFFF" stroke-miterlimit="10" cx="131.5" cy="292.986" r="1.936"/>
	</g>
	<g id="flussi">
	</g>
	<g id="Layer_8">
	</g>
	<g id="scritte">
	</g>
	<g id="logo">
	</g>
</g>
<g id="Layer_2">
	<g opacity="0.8">
		<g>
			<path fill="#666666" d="M488.952,185.98c0,1.559-1.271,2.834-2.835,2.834H380.262c-1.562,0-2.835-1.275-2.835-2.834v-33.389
				c0-1.559,1.271-2.834,2.835-2.834h105.855c1.562,0,2.835,1.275,2.835,2.834V185.98L488.952,185.98z"/>
		</g>
		
			<rect x="374.713" y="166.046" transform="matrix(-0.707 -0.7073 0.7073 -0.707 525.3995 556.2307)" fill="#666666" width="6.441" height="6.445"/>
	</g>
	<g opacity="0.8">
		<g>
			<path fill="#666666" d="M422.257,312.175c0,1.56-1.274,2.835-2.835,2.835H359.59c-1.562,0-2.835-1.275-2.835-2.835v-11.547
				c0-1.56,1.271-2.835,2.835-2.835h59.832c1.561,0,2.835,1.275,2.835,2.835V312.175z"/>
		</g>
		<polygon fill="#666666" points="394.049,297.924 388.926,293.367 383.798,297.924 388.926,302.48 		"/>
	</g>
	<g opacity="0.8">
		<g>
			<path fill="#666666" d="M208.198,312.175c0,1.56-1.271,2.835-2.834,2.835h-34.13c-1.559,0-2.834-1.275-2.834-2.835v-11.547
				c0-1.56,1.275-2.835,2.834-2.835h34.13c1.562,0,2.834,1.275,2.834,2.835V312.175z"/>
		</g>
		
			<rect x="185.06" y="294.696" transform="matrix(-0.707 -0.7072 0.7072 -0.707 110.7214 641.7032)" fill="#666666" width="6.443" height="6.443"/>
	</g>
	<g opacity="0.8">
		<g>
			<path fill="#666666" d="M135.093,330.841c0-1.56,1.275-2.835,2.834-2.835h47.537c1.559,0,2.834,1.275,2.834,2.835v5.709
				c0,1.56-1.275,2.835-2.834,2.835h-47.537c-1.559,0-2.834-1.275-2.834-2.835V330.841z"/>
		</g>
		<polygon fill="#666666" points="156.747,339.256 161.695,343.811 166.645,339.256 161.695,334.697 		"/>
	</g>
	<g opacity="0.8">
		<g>
			<path fill="#666666" d="M453,124.27c0,1.559-1.275,2.834-2.839,2.834h-69.68c-1.561,0-2.835-1.275-2.835-2.834v-11.465
				c0-1.559,1.274-2.834,2.835-2.834h69.68c1.562,0,2.839,1.275,2.839,2.834V124.27z"/>
		</g>
		<polygon fill="#666666" points="382.966,118.657 378.157,114.101 373.354,118.657 378.157,123.214 		"/>
	</g>
	<g opacity="0.8">
		<g>
			<path fill="#666666" d="M157.287,159.745c0-1.559,1.271-2.834,2.834-2.834h32.684c1.559,0,2.834,1.275,2.834,2.834v15.173
				c0,1.559-1.275,2.834-2.834,2.834h-32.684c-1.562,0-2.834-1.275-2.834-2.834V159.745z"/>
		</g>
		
			<rect x="191.959" y="163.738" transform="matrix(0.707 0.7072 -0.7072 0.707 175.253 -89.1141)" fill="#666666" width="6.442" height="6.445"/>
	</g>
	<g>
		<g>
			<text transform="matrix(1 -0.0016 0.0016 1 360.9592 305.8477)" fill="#FFFFFF" font-family="'Arial-BoldMT'" font-size="7">Innovating Ideas</text>
			<text transform="matrix(1 -0.0016 0.0016 1 360.969 312.6035)" fill="#FFFFFF" font-family="'Arial-BoldMT'" font-size="7">Startup</text>
		</g>
	</g>
	<g>
		<text transform="matrix(1 0 0 1 173.6135 305.5312)" fill="#FFFFFF" font-family="'Arial-BoldMT'" font-size="7">Business</text>
		<text transform="matrix(1 0 0 1 171.2874 312.2871)" fill="#FFFFFF" font-family="'Arial-BoldMT'" font-size="7">in Canada</text>
	</g>
	<g>
		<text transform="matrix(1 0 0 1 141.1184 336.0566)" fill="#FFFFFF" font-family="'Arial-BoldMT'" font-size="7">PM services</text>
	</g>
	<g>
		<text transform="matrix(1 0 0 1 380.9456 158.335)" fill="#FFFFFF" font-family="'Arial-BoldMT'" font-size="7">Strategy &amp; Organization Design </text>
		<text transform="matrix(1 0 0 1 380.9456 165.0928)" fill="#FFFFFF" font-family="'Arial-BoldMT'" font-size="7">Startup Coaching</text>
		<text transform="matrix(1 0 0 1 380.9456 171.8496)" fill="#FFFFFF" font-family="'Arial-BoldMT'" font-size="7">Business Development</text>
		<text transform="matrix(1 0 0 1 380.9456 178.6064)" fill="#FFFFFF" font-family="'Arial-BoldMT'" font-size="7">Communication Design</text>
		<text transform="matrix(1 0 0 1 380.9456 184.9395)" fill="#FFFFFF" font-family="'Arial-BoldMT'" font-size="7">Innovation Projects</text>
	</g>
	<g>
		<text transform="matrix(1 0 0 1 379.9456 120.7012)" fill="#FFFFFF" font-family="'Arial-BoldMT'" font-size="7">Company services</text>
	</g>
	<g>
		<text transform="matrix(1 0 0 1 173.2297 165.5586)" fill="#FFFFFF" font-family="'Arial-BoldMT'" font-size="7">Ideas</text>
		<text transform="matrix(1 0 0 1 159.2297 172.3154)" fill="#FFFFFF" font-family="'Arial-BoldMT'" font-size="7">Problems</text>
	</g>
	<g opacity="0.8">
		<g>
			<path fill="#666666" d="M384.735,324.773c0-1.647,1.348-2.996,2.995-2.996h59.025c1.646,0,2.992,1.349,2.992,2.996V336
				c0,1.646-1.348,2.995-2.992,2.995H387.73c-1.647,0-2.995-1.349-2.995-2.995V324.773L384.735,324.773z"/>
		</g>
		
			<rect x="414.043" y="335.68" transform="matrix(-0.707 -0.7072 0.7072 -0.707 472.6174 873.5989)" fill="#666666" width="6.443" height="6.445"/>
	</g>
	<g>
		<text transform="matrix(1 0 0 1 386.7112 328.2793)" fill="#FFFFFF" font-family="'Arial-BoldMT'" font-size="7">Attractive projects</text>
		<text transform="matrix(1 0 0 1 427.176 336.6797)" fill="#FFFFFF" font-family="'Arial-BoldMT'" font-size="7">for VC</text>
	</g>
</g>
</svg>
